<?xml version="1.0" encoding="utf-8"?>
<!-- Generator: Adobe Illustrator 20.1.0, SVG Export Plug-In . SVG Version: 6.00 Build 0)  -->
<svg version="1.1" id="Layer_2" xmlns="http://www.w3.org/2000/svg" xmlns:xlink="http://www.w3.org/1999/xlink" x="0px" y="0px"
	 viewBox="0 0 1535.4 401.5" style="enable-background:new 0 0 1535.4 401.5;" xml:space="preserve">
<style type="text/css">
	.st0{fill:url(#SVGID_1_);}
	.st1{fill:#FFFFFF;}
	.st2{fill:url(#SVGID_2_);}
	.st3{fill:url(#SVGID_3_);}
	.st4{fill:url(#SVGID_4_);}
	.st5{fill:#323232;}
</style>
<g>
	<linearGradient id="SVGID_1_" gradientUnits="userSpaceOnUse" x1="270.9545" y1="305.6481" x2="63.2154" y2="2.2528">
		<stop  offset="0" style="stop-color:#BE0000"/>
		<stop  offset="0.3898" style="stop-color:#DE0000"/>
		<stop  offset="0.768" style="stop-color:#F60000"/>
		<stop  offset="1" style="stop-color:#FF0000"/>
	</linearGradient>
	<path class="st0" d="M115.6,306.1h311.3L177.4,55.6c-33.2-33.2-78.3-53-125.3-53H-0.1l3.9,10.2l17.3,45.3L115.6,306.1z"/>
</g>
<path class="st1" d="M21.1,58.1c34.1,58.2,123.5,64.3,133.2,154.8c0.4,3.7,3.3,6.7,7,7.3c51.5,8.1,101.7,29.3,145.3,64.2l0,0
	c0.3,0.2,0.6,0.3,1,0.3s0.8-0.1,1.1-0.4c0.6-0.6,0.6-1.6,0.1-2.2c-30.2-31.7-67.1-57.1-108.5-73.8l-12.6-5.1
	c-6.5-2.6-11-9-10.8-16.4c0.7-27,64.6-21.5,71.1-34.5l1.1-2.2c-13.2-11.3-28.8-19.7-46-24.4c-0.2,0.7-0.6,3.8,2.9,9.5
	c3.8,6.2-4.2,16.1-15.8,5.4l-1-0.9C102.8,60.6,38.1,101.6,3.8,12.8L21.1,58.1z"/>
<linearGradient id="SVGID_2_" gradientUnits="userSpaceOnUse" x1="213.1137" y1="168.0773" x2="215.9125" y2="136.0867">
	<stop  offset="0.65" style="stop-color:#FFFFFF;stop-opacity:0"/>
	<stop  offset="0.7285" style="stop-color:#E0E0E0;stop-opacity:0.2617"/>
	<stop  offset="0.8148" style="stop-color:#C5C5C5;stop-opacity:0.5493"/>
	<stop  offset="0.8914" style="stop-color:#B5B5B5;stop-opacity:0.8047"/>
	<stop  offset="0.95" style="stop-color:#AFAFAF"/>
</linearGradient>
<path class="st2" d="M228.9,148.7c0,0-14.2,0.7-22.9-13.5c2.6,4.2-0.3,10.1-6,10.1v21.6c9.3-2.7,19.9-4.4,28.9-6.2V148.7z"/>
<linearGradient id="SVGID_3_" gradientUnits="userSpaceOnUse" x1="171.999" y1="252.4945" x2="306.6443" y2="252.4945">
	<stop  offset="0" style="stop-color:#FFFFFF;stop-opacity:0"/>
	<stop  offset="8.390770e-02" style="stop-color:#F1F1F1;stop-opacity:9.323078e-02"/>
	<stop  offset="0.2921" style="stop-color:#D4D4D4;stop-opacity:0.3246"/>
	<stop  offset="0.4993" style="stop-color:#C0C0C0;stop-opacity:0.5548"/>
	<stop  offset="0.7032" style="stop-color:#B3B3B3;stop-opacity:0.7814"/>
	<stop  offset="0.9" style="stop-color:#AFAFAF"/>
</linearGradient>
<path class="st3" d="M172,222.1c47.8,9.2,94.1,29.8,134.6,62.4C216.2,207.2,174.9,221.1,172,222.1z"/>
<linearGradient id="SVGID_4_" gradientUnits="userSpaceOnUse" x1="3.8357" y1="112.8514" x2="154.3459" y2="112.8514">
	<stop  offset="0.25" style="stop-color:#FFFFFF;stop-opacity:0"/>
	<stop  offset="0.4615" style="stop-color:#EDEDED;stop-opacity:0.282"/>
	<stop  offset="0.886" style="stop-color:#BDBDBD;stop-opacity:0.848"/>
	<stop  offset="1" style="stop-color:#AFAFAF"/>
</linearGradient>
<path class="st4" d="M39.3,62.2L39.3,62.2c-14.1-10-26-24.7-35.5-49.4l17.3,45.3c34.1,58.2,123.5,64.3,133.2,154.8
	C144.5,97.5,93.8,114.7,39.3,62.2z"/>
<g>
	<path class="st5" d="M833.7,327.3v-1.8c0-7.5-5.3-13.3-14.7-13.3c-9.2,0-14.4,4.7-14.4,11.3c0,5.2,3.6,9,8.5,10.9l12.3,5
		c8.5,3.4,18.1,8,18.1,20.8c0,13.2-9.9,21.7-24.3,21.7c-14.4,0-24.4-8.1-24.4-21V359h8.5v2.3c0,7.6,5.8,13.2,15.8,13.2
		c10.1,0,15.9-5.7,15.9-13.3c0-8.1-5.8-11.3-12.7-14l-10.6-4.3c-8.4-3.3-15.3-8.8-15.3-18.8c0-11.3,9.1-19.2,22.7-19.2
		s23.1,8.1,23.1,21v1.4H833.7z"/>
	<path class="st5" d="M862.4,331.6c3.3-4.8,8.5-7.6,15.1-7.6c12,0,19.2,8.1,19.2,20.6v16.7c0,12.5-7.2,20.6-19.2,20.6
		c-6.1,0-11.1-2.4-14.4-6.7V402h-8.3v-76.8h6.4L862.4,331.6z M863.1,345.2v15.7c0,7.7,4.9,13.6,13.1,13.6c8.1,0,12.3-5.6,12.3-12.8
		v-17.4c0-7.2-4.2-12.8-12.3-12.8C868,331.4,863.1,337.4,863.1,345.2z"/>
	<path class="st5" d="M912.8,304c3,0,5.3,2.4,5.3,5.5c0,3-2.4,5.3-5.3,5.3c-3.1,0-5.5-2.4-5.5-5.3C907.3,306.4,909.7,304,912.8,304z
		 M916.9,325.2v55.6h-8.3v-55.6H916.9z"/>
	<path class="st5" d="M930.2,380.7v-55.6h6.4l1.4,7c3.1-5,8.3-8.2,14.8-8.2c0.9,0,1.8,0.1,2.7,0.2v8c-0.9-0.1-2.2-0.3-3.4-0.3
		c-8,0-13.5,5.6-13.5,13.9v35H930.2z"/>
	<path class="st5" d="M968.9,304c3,0,5.3,2.4,5.3,5.5c0,3-2.4,5.3-5.3,5.3c-3.1,0-5.5-2.4-5.5-5.3C963.5,306.4,965.9,304,968.9,304z
		 M973,325.2v55.6h-8.3v-55.6H973z"/>
	<path class="st5" d="M982.5,325.5h10.7v-15.1h8.4v15.1h10.7v7h-10.7v48.2h-8.4v-48.2h-10.7V325.5z"/>
	<path class="st5" d="M1088,360.3c0,13.3-8.6,21.6-21.3,21.6c-12.6,0-21.1-8.3-21.1-21.6v-14.7c0-13.3,8.5-21.6,21.1-21.6
		c12.6,0,21.3,8.3,21.3,21.6V360.3z M1053.9,361c0,7.8,4.7,13.8,12.8,13.8c8.2,0,12.8-5.9,12.8-13.8v-15.9c0-7.8-4.7-13.8-12.8-13.8
		c-8.2,0-12.8,5.9-12.8,13.8V361z"/>
	<path class="st5" d="M1095.5,325.5h8.9v-2.7c0-12.3,6.5-19,18.6-19h4.8v7.2h-4.3c-8,0-10.7,4.7-10.7,11.3v3.3h14.3v7h-14.3v48.2
		h-8.4v-48.2h-8.9V325.5z"/>
	<path class="st5" d="M1156.6,380.7l23.9-74.7h8.8l24.1,74.7h-9l-5.5-17.2h-28.4l-5.3,17.2H1156.6z M1172.7,356.1h24l-12.2-38.3
		L1172.7,356.1z"/>
	<path class="st5" d="M1221,325.2h8.3V362c0,7,4,12.5,11.7,12.5c8.1,0,13-5.9,13-13.6v-35.7h8.3v55.6h-6.4l-1.3-6.4
		c-3.3,4.7-8.6,7.5-15.1,7.5c-11.8,0-18.5-7.8-18.5-19.9V325.2z"/>
	<path class="st5" d="M1280.5,363.6v1.9c0,5.6,4.8,9.7,13,9.7c7.7,0,11.8-3.9,11.8-9.3c0-4.5-2.2-6.8-7.4-8.4l-10.7-3.3
		c-6.5-1.9-12.8-5.9-12.8-14.6c0-8.4,7.6-15.6,18.8-15.6c11.7,0,19.8,6,19.8,16.3v0.9h-7.8v-1.4c0-5.1-4.3-9.2-11.9-9.2
		c-5.1,0-10.9,2.6-10.9,8.3c0,3.8,2,6,6.7,7.4l9.4,3c8.3,2.6,15,6,15,15.7c0,10-7.7,16.9-19.8,16.9c-12.2,0-20.8-6.4-20.8-16.8v-1.5
		H1280.5z"/>
	<path class="st5" d="M1320.8,325.5h10.7v-15.1h8.4v15.1h10.7v7h-10.7v48.2h-8.4v-48.2h-10.7V325.5z"/>
	<path class="st5" d="M1360.1,380.7v-55.6h6.4l1.4,7c3.1-5,8.3-8.2,14.8-8.2c0.9,0,1.8,0.1,2.7,0.2v8c-0.9-0.1-2.2-0.3-3.4-0.3
		c-8,0-13.5,5.6-13.5,13.9v35H1360.1z"/>
	<path class="st5" d="M1392.5,344.6c0-12.5,7.2-20.6,19.2-20.6c6.6,0,11.8,2.8,15.1,7.5l1.3-6.4h6.4v55.6h-6.4l-1.3-6.4
		c-3.3,4.7-8.6,7.5-15.1,7.5c-12,0-19.2-8.1-19.2-20.6V344.6z M1426.2,360.9v-15.7c0-7.7-4.9-13.8-13.1-13.8
		c-8.1,0-12.3,5.7-12.3,12.8v17.4c0,7.3,4.2,12.8,12.3,12.8C1421.3,374.5,1426.2,368.6,1426.2,360.9z"/>
	<path class="st5" d="M1456.5,303.8v77h-8.4v-77H1456.5z"/>
	<path class="st5" d="M1474.1,304c3,0,5.3,2.4,5.3,5.5c0,3-2.4,5.3-5.3,5.3c-3.1,0-5.5-2.4-5.5-5.3
		C1468.7,306.4,1471,304,1474.1,304z M1478.2,325.2v55.6h-8.3v-55.6H1478.2z"/>
	<path class="st5" d="M1490,344.6c0-12.5,7.2-20.6,19.2-20.6c6.6,0,11.8,2.8,15.1,7.5l1.3-6.4h6.4v55.6h-6.4l-1.3-6.4
		c-3.3,4.7-8.6,7.5-15.1,7.5c-12.1,0-19.2-8.1-19.2-20.6V344.6z M1523.6,360.9v-15.7c0-7.7-4.9-13.8-13.1-13.8
		c-8.1,0-12.3,5.7-12.3,12.8v17.4c0,7.3,4.2,12.8,12.3,12.8C1518.7,374.5,1523.6,368.6,1523.6,360.9z"/>
</g>
<g>
	<g>
		<path class="st5" d="M458.5,250.4c-61.5,0-100.6-32-100.6-72.1c0-40.8,41.4-72.1,102.4-72.1c61,0,102.4,31.5,102.4,70.5
			c0,17.5-7.8,31.8-22.6,43.8h36.2l-8.7,14.9c-5.5,9.4-12.2,15-26.7,15H458.5z M460.2,217.7c33.6,0,61.9-16.6,61.9-39.4
			s-28.3-39.4-61.9-39.4c-33.6,0-61.9,16.6-61.9,39.4S426.6,217.7,460.2,217.7z"/>
		<path class="st5" d="M727.4,226h-96.9l-13.8,24.4h-40.1L643.7,134c5.3-9.2,12.9-16.3,28.1-16.3h15c15.2,0,22.8,7.1,28.1,16.3
			l67.2,116.3h-41L727.4,226z M646.9,196.8h64l-29.7-52.9c-0.7-1.2-1.2-1.6-2.3-1.6c-1.1,0-1.6,0.4-2.3,1.6L646.9,196.8z"/>
		<path class="st5" d="M973.4,117.8v132.6h-35.9l-105.4-87.9v87.9h-35.9V117.8h22.5c11.5,0,17.3,3,23.9,8.7l94.9,79v-87.7H973.4z"/>
		<path class="st5" d="M1101.1,147.6v102.7h-35.9V147.6h-73.5v-29.9h183v29.9H1101.1z"/>
		<path class="st5" d="M1294.1,226h-96.9l-13.8,24.4h-40.1l67.2-116.3c5.3-9.2,12.9-16.3,28.1-16.3h15c15.2,0,22.8,7.1,28.1,16.3
			l67.2,116.3h-41L1294.1,226z M1213.7,196.8h64l-29.7-52.9c-0.7-1.2-1.2-1.6-2.3-1.6c-1.1,0-1.6,0.4-2.3,1.6L1213.7,196.8z"/>
		<path class="st5" d="M1361.3,240.8l-3.4-1.1l9-28.8c25.8,8.3,53.4,11.7,78.3,11.7c40.8,0,50.9-4.8,50.9-9.9c0-2.1-1.4-3.7-4.6-4.8
			c-4.1-1.4-15.4-3.7-48.8-9.2c-37-6-53.6-9-65.8-14.7c-12.2-5.7-19.6-14.7-19.6-27.9c0-10.1,5-18.2,12.9-24.6
			c14.1-11,38.4-15.4,64.7-15.4c33.9,0,62.4,2.8,94.1,10.6l2.8,0.9l-7.6,28.1c-35.4-7.6-55-9.7-81.9-10.1c-18.9-0.2-32,1.2-38.9,3.4
			c-3.9,1.2-5.5,3-5.5,5.1c0,1.9,1.2,3.7,5.1,5c4.2,1.4,11.1,3,47.4,8.8c39.2,6.4,52.2,9,62.9,13.3c14.7,5.7,23.5,16.1,23.5,29.2
			c0,16.4-12.7,28.6-34.8,35.4c-13.6,4.1-31.8,6.4-52.3,6.4C1417.7,252.1,1383.4,247.9,1361.3,240.8z"/>
	</g>
</g>
</svg>
