<?xml version="1.0" encoding="utf-8"?>
<!-- Generator: Adobe Illustrator 19.2.1, SVG Export Plug-In . SVG Version: 6.00 Build 0)  -->
<svg version="1.1" id="Layer_2" xmlns="http://www.w3.org/2000/svg" xmlns:xlink="http://www.w3.org/1999/xlink" x="0px" y="0px"
	 viewBox="0 0 1536.9 303.5" style="enable-background:new 0 0 1536.9 303.5;" xml:space="preserve">
<style type="text/css">
	.st0{fill:url(#SVGID_1_);}
	.st1{fill:#FFFFFF;}
	.st2{fill:url(#SVGID_2_);}
	.st3{fill:url(#SVGID_3_);}
	.st4{fill:url(#SVGID_4_);}
	.st5{fill:#323232;}
</style>
<g>
	
		<linearGradient id="SVGID_1_" gradientUnits="userSpaceOnUse" x1="271.045" y1="95.7454" x2="63.3059" y2="399.1407" gradientTransform="matrix(1 0 0 -1 0 398.8)">
		<stop  offset="0" style="stop-color:#BE0000"/>
		<stop  offset="0.3898" style="stop-color:#DE0000"/>
		<stop  offset="0.768" style="stop-color:#F60000"/>
		<stop  offset="1" style="stop-color:#FF0000"/>
	</linearGradient>
	<path class="st0" d="M115.7,303.5H427L177.5,53C144.3,19.8,99.2,0,52.2,0H0l3.9,10.2l17.3,45.3L115.7,303.5z"/>
</g>
<path class="st1" d="M21.2,55.5c34.1,58.2,123.5,64.3,133.2,154.8c0.4,3.7,3.3,6.7,7,7.3c51.5,8.1,101.7,29.3,145.3,64.2l0,0
	c0.3,0.2,0.6,0.3,1,0.3s0.8-0.1,1.1-0.4c0.6-0.6,0.6-1.6,0.1-2.2c-30.2-31.7-67.1-57.1-108.5-73.8l-12.6-5.1
	c-6.5-2.6-11-9-10.8-16.4c0.7-27,64.6-21.5,71.1-34.5l1.1-2.2c-13.2-11.3-28.8-19.7-46-24.4c-0.2,0.7-0.6,3.8,2.9,9.5
	c3.8,6.2-4.2,16.1-15.8,5.4l-1-0.9C102.9,58,38.2,99,3.9,10.2L21.2,55.5z"/>
<linearGradient id="SVGID_2_" gradientUnits="userSpaceOnUse" x1="213.2334" y1="233.351" x2="216.0313" y2="265.3311" gradientTransform="matrix(1 0 0 -1 0 398.8)">
	<stop  offset="0.65" style="stop-color:#FFFFFF;stop-opacity:0"/>
	<stop  offset="0.7285" style="stop-color:#E0E0E0;stop-opacity:0.2617"/>
	<stop  offset="0.8148" style="stop-color:#C5C5C5;stop-opacity:0.5493"/>
	<stop  offset="0.8914" style="stop-color:#B5B5B5;stop-opacity:0.8047"/>
	<stop  offset="0.95" style="stop-color:#AFAFAF"/>
</linearGradient>
<path class="st2" d="M229,146.1c0,0-14.2,0.7-22.9-13.5c2.6,4.2-0.3,10.1-6,10.1v21.6c9.3-2.7,19.9-4.4,28.9-6.2V146.1z"/>
<linearGradient id="SVGID_3_" gradientUnits="userSpaceOnUse" x1="172.1" y1="148.8945" x2="306.7" y2="148.8945" gradientTransform="matrix(1 0 0 -1 0 398.8)">
	<stop  offset="0" style="stop-color:#FFFFFF;stop-opacity:0"/>
	<stop  offset="8.390770e-02" style="stop-color:#F1F1F1;stop-opacity:9.323078e-02"/>
	<stop  offset="0.2921" style="stop-color:#D4D4D4;stop-opacity:0.3246"/>
	<stop  offset="0.4993" style="stop-color:#C0C0C0;stop-opacity:0.5548"/>
	<stop  offset="0.7032" style="stop-color:#B3B3B3;stop-opacity:0.7814"/>
	<stop  offset="0.9" style="stop-color:#AFAFAF"/>
</linearGradient>
<path class="st3" d="M172.1,219.5c47.8,9.2,94.1,29.8,134.6,62.4C216.3,204.6,175,218.5,172.1,219.5z"/>
<linearGradient id="SVGID_4_" gradientUnits="userSpaceOnUse" x1="3.9" y1="288.55" x2="154.4" y2="288.55" gradientTransform="matrix(1 0 0 -1 0 398.8)">
	<stop  offset="0.25" style="stop-color:#FFFFFF;stop-opacity:0"/>
	<stop  offset="0.4615" style="stop-color:#EDEDED;stop-opacity:0.282"/>
	<stop  offset="0.886" style="stop-color:#BDBDBD;stop-opacity:0.848"/>
	<stop  offset="1" style="stop-color:#AFAFAF"/>
</linearGradient>
<path class="st4" d="M39.4,59.6L39.4,59.6c-14.1-10-26-24.7-35.5-49.4l17.3,45.3c34.1,58.2,123.5,64.3,133.2,154.8
	C144.6,94.9,93.9,112.1,39.4,59.6z"/>
<g>
	<g>
		<path class="st5" d="M458.6,247.8c-61.5,0-100.6-32-100.6-72.1c0-40.8,41.4-72.1,102.4-72.1s102.4,31.5,102.4,70.5
			c0,17.5-7.8,31.8-22.6,43.8h36.2l-8.7,14.9c-5.5,9.4-12.2,15-26.7,15H458.6L458.6,247.8z M460.3,215.1c33.6,0,61.9-16.6,61.9-39.4
			c0-22.8-28.3-39.4-61.9-39.4s-61.9,16.6-61.9,39.4S426.7,215.1,460.3,215.1z"/>
		<path class="st5" d="M727.5,223.4h-96.9l-13.8,24.4h-40.1l67.1-116.4c5.3-9.2,12.9-16.3,28.1-16.3h15c15.2,0,22.8,7.1,28.1,16.3
			l67.2,116.3h-41L727.5,223.4z M647,194.2h64l-29.7-52.9c-0.7-1.2-1.2-1.6-2.3-1.6s-1.6,0.4-2.3,1.6L647,194.2z"/>
		<path class="st5" d="M973.5,115.2v132.6h-35.9l-105.4-87.9v87.9h-35.9V115.2h22.5c11.5,0,17.3,3,23.9,8.7l94.9,79v-87.7H973.5z"/>
		<path class="st5" d="M1101.2,145v102.7h-35.9V145h-73.5v-29.9h183V145H1101.2z"/>
		<path class="st5" d="M1294.2,223.4h-96.9l-13.8,24.4h-40.1l67.2-116.3c5.3-9.2,12.9-16.3,28.1-16.3h15c15.2,0,22.8,7.1,28.1,16.3
			l67.2,116.3h-41L1294.2,223.4z M1213.8,194.2h64l-29.7-52.9c-0.7-1.2-1.2-1.6-2.3-1.6c-1.1,0-1.6,0.4-2.3,1.6L1213.8,194.2z"/>
		<path class="st5" d="M1361.4,238.2l-3.4-1.1l9-28.8c25.8,8.3,53.4,11.7,78.3,11.7c40.8,0,50.9-4.8,50.9-9.9c0-2.1-1.4-3.7-4.6-4.8
			c-4.1-1.4-15.4-3.7-48.8-9.2c-37-6-53.6-9-65.8-14.7c-12.2-5.7-19.6-14.7-19.6-27.9c0-10.1,5-18.2,12.9-24.6
			c14.1-11,38.4-15.4,64.7-15.4c33.9,0,62.4,2.8,94.1,10.6l2.8,0.9l-7.6,28.1c-35.4-7.6-55-9.7-81.9-10.1c-18.9-0.2-32,1.2-38.9,3.4
			c-3.9,1.2-5.5,3-5.5,5.1c0,1.9,1.2,3.7,5.1,5c4.2,1.4,11.1,3,47.4,8.8c39.2,6.4,52.2,9,62.9,13.3c14.7,5.7,23.5,16.1,23.5,29.2
			c0,16.4-12.7,28.6-34.8,35.4c-13.6,4.1-31.8,6.4-52.3,6.4C1417.8,249.5,1383.5,245.3,1361.4,238.2z"/>
	</g>
</g>
</svg>
