<svg xmlns="http://www.w3.org/2000/svg" xmlns:xlink="http://www.w3.org/1999/xlink" viewBox="0 0 71 17.16"><defs><style>.cls-1{fill:none;}.cls-2{clip-path:url(#clip-path);}.cls-3{fill:#293a8a;}.cls-4{fill:#ec3159;}</style><clipPath id="clip-path" transform="translate(0 0)"><rect class="cls-1" width="71" height="17.16"/></clipPath></defs><title>Asset 4</title><g id="Layer_2" data-name="Layer 2"><g id="Lockup"><g class="cls-2"><path class="cls-3" d="M7.89,13.05l3.18,3.18a2.82,2.82,0,0,0,4,0h0a2.82,2.82,0,0,0,0-4L8,5.17" transform="translate(0 0)"/><path class="cls-4" d="M8,13.06,4.83,16.24a2.82,2.82,0,0,1-4,0h0a2.82,2.82,0,0,1,0-4L8,5.17" transform="translate(0 0)"/><path class="cls-4" d="M15.09,2a2.82,2.82,0,0,0-4,0L8,5.17v8L15.09,6a2.82,2.82,0,0,0,0-4h0" transform="translate(0 0)"/><path class="cls-3" d="M.82,2a2.82,2.82,0,0,1,4,0L8,5.17v8L.82,6a2.82,2.82,0,0,1,0-4h0" transform="translate(0 0)"/></g><path class="cls-3" d="M35.61,7.7c-1.83,0-2.4,1.78-2.4,3.47s.5,3.57,2.36,3.57,2.36-1.81,2.36-3.59S37.47,7.7,35.61,7.7Zm0,9.47c-4,0-5.59-2.81-5.59-6s1.88-6,5.69-6c4,0,5.52,2.74,5.52,5.9s-1.52,6-5.61,6Z" transform="translate(0 0)"/><path class="cls-3" d="M27.63,14.67c-.9,0-1.36-.55-1.36-1.67V7.89h3A9.21,9.21,0,0,1,31,5.37H26.27V1.48l-.36,0a6.74,6.74,0,0,0-.74,0c-1,0-2.14.31-2.14,1.9V5.37H21.37a7,7,0,0,0-.06,1c0,.73.49,1.46,1.73,1.5V13a6.54,6.54,0,0,0,.26,2c.45,1.24,1.48,2.07,3.45,2.07a5.45,5.45,0,0,0,3.51-1.07,7.56,7.56,0,0,1-1-2,2.23,2.23,0,0,1-1.59.59Z" transform="translate(0 0)"/><path class="cls-3" d="M49.06,5.38a3.08,3.08,0,0,0-1-.16A3.21,3.21,0,0,0,45.41,6.6c-.19-.83-1-1.21-2-1.21a6,6,0,0,0-.79,0l-.29,0V16.81h3.24V9.48a2.12,2.12,0,0,1,1.93-1.75,4.4,4.4,0,0,1,1.57.16V5.38Z" transform="translate(0 0)"/><path class="cls-4" d="M57.38,5.39H55V4.72c0-1.52.77-2.19,2-2.19a2,2,0,0,1,1.61.54l1.08-2A4.64,4.64,0,0,0,56.53,0c-3,0-4.72,1.74-4.72,4.81v.58H50.33v2.5h1.49v8.92H55V7.89h4.08l-1.73-2.5Z" transform="translate(0 0)"/><path class="cls-4" d="M71,5.38H67.2l-2.35,3.2-1.44-2a3,3,0,0,0-2.27-1.5,7.33,7.33,0,0,0-2.33.28L63,11.09l-4.2,5.72H62.5l2.36-3.19,1.47,2a3,3,0,0,0,2.27,1.5,7.33,7.33,0,0,0,2.33-.28l-4.2-5.72L71,5.38Z" transform="translate(0 0)"/></g></g></svg>