<svg xmlns="http://www.w3.org/2000/svg" viewBox="0 0 1248 617.88"><defs><style>.cls-1{opacity:0.15;}.cls-2{opacity:0.5;}.cls-3{opacity:0.2;}.cls-4{fill:#fff;}.cls-5{fill:none;stroke:#fff;stroke-linecap:round;stroke-miterlimit:10;stroke-width:0.5px;stroke-dasharray:2;opacity:0.53;}</style></defs><title>Asset 5</title><g id="Layer_2" data-name="Layer 2"><g id="Symbols"><path class="cls-1" d="M1034.7,476c.24-.64,1-1.11,1.41-1.75a17.76,17.76,0,0,1,1.48-1.75c.34-.44.12-.29.57-.56.14-.08.34,0,.49-.08s.27-.45.38-.57c.35-.41.74-1.39,1.15-1.61a6.75,6.75,0,0,1,.17,1c.48.15,1-.24,1.53-.23.33,0,.47.16.87.06a5,5,0,0,0,1.12-.48h.08c.51,0,.89-.63,1.29-.9a4.58,4.58,0,0,1,1.65-.59c1.26-.29,1.39-1.53,2.49-2,.93-.36,2,.07,3-.33s2-1.17,3.09-1.49h.08c1.12.21,2.55-1.58,3.09-2.43a3.4,3.4,0,0,0,.52-1.7c.08-.76.09-.84.83-1.14-.33-1,.46-1.19,1.13-1.73.24-.19,1-.83.91-1.21s-.74-.27-.91-.67a8.62,8.62,0,0,1-.15-1.2,3.28,3.28,0,0,1-.15-1.2c.07-.47,1.17-2.23,1.51-1.37l-.15-.15c-.08-1,.41-1.06.83-1.43s.68-1.56,1.35-1.57c.09.43-.13.71,0,1.08a8.81,8.81,0,0,0,.65,1.17c.38.66.7,2.05,1.42,2.46.52-.69.15-1.52.37-2.23.3.09.54.37.88.44.27-.39-.71-1.62-1-1.87s-1-.19-.79-.68c.12-.28.79-.1,1-.28-.38-.29-.94-1.26,0-1.16.56.06.46.91,1,1.13.11-.31-.09-.57-.09-.89a2.91,2.91,0,0,1,.73.37s.81.44.78.44c.78-.11.21-1.69,1-1.42.14-.44.95-1.18.7-1.56-.31.24-.51.7-.88.72-.15-.4-.31-.47-.4-1-.13-.74.16-.6.58-.92.12-.1.3-.07.46-.22s-.06-.4.12-.53c.59-.42.5.26,1,.29,1.35.09-.22-.73-.18-1.18.08-1.09,1.32-.28,1.93-.45-.61-.15-.37-.61-.49-1s-.75-.78-.08-1.21l.15-.08c.81-.38.87,0,1.2-.83.12-.3-.1-.65.42-.67s.41.3.22.59c.63-.14.55.43.79.78a1.37,1.37,0,0,1,.75-.48c-.69-.95.47-.67.38-1.42s-1.2-.11-1-.83c.38-1.15,1.06.51,1.1.53.49.3.63-.6,1.28-.68,0,.41-.37,1.17.41.86.43-.17.4-1,1.11-1-.37-.37-.46-1,.3-.88.22,0,.36.5.62.6s.45-.16.68-.09c.73.21,1.82,2.08,2.41,2l.05-.14c.05.38.63.73.9.95a5.37,5.37,0,0,0,.58.43c.17.1.55.18.62.31-.5.11-.93,2.51-.43,2.84,0-.1,0-.61.1-.65s.35.24.56.22c.07-.24-.22-.48-.23-.78s.12-.78.46-.42a.35.35,0,0,1,0-.38l.12.13a.94.94,0,0,1,0-.14c.22.23.42.09.29-.15s-.59-.22-.19-.48a1.71,1.71,0,0,1,1.55.12h0c.57,0,1.52.25,1.72.76.09.23.26.86.35.18a3.72,3.72,0,0,0-.11-1,.94.94,0,0,1,.54.15s.14.13.2.16.21,0,.3.06a1.53,1.53,0,0,1,.34.56c0,.08.17.41.27.47l0-.13c.59.11-.08-.67,0-1s.13-.26.45-.27.56.1.47-.23a1.2,1.2,0,0,1-1.17-.71c.17-.2.47-.13.65-.39-.32-.15-.65.13-1-.05a2.41,2.41,0,0,1-.45-.38c-.23-.2-.28-.05-.23-.38a4.92,4.92,0,0,1,.22-.46c.09-.19.15-.18.2-.42s.07-.7.5-.39c.12-.31.52-.1.63-.54,0-.14-.09-.23,0-.4a1.34,1.34,0,0,1,.34-.39l-.12-.19c0-.35-.06-1.25.51-1.18.32,0,.2.32.59.12a1.74,1.74,0,0,0,.31-.27c.05-.06.18-.26.2-.28s.56-.18.59-.31-.47-.47-.56-.58a.69.69,0,0,1-.19-.6c0-.23-.07-.56.22-.61.28.49.62-.21.68-.45a4.11,4.11,0,0,1,.08-.46c.07-.16.28-.08.22-.39.29.08.66.44.71-.1,0-.1-.09-.13-.1-.21s.05-.17.05-.23a3,3,0,0,0,0-.47v0a1,1,0,0,1,.51.08c.29,0,.47.41.43.65l.16,0a.92.92,0,0,0,.2.38c.1-.05.21-.14.29-.19a.67.67,0,0,0-.29-.3c.25.05.43-.12.16-.28.1-.15.1-.21,0-.27a.35.35,0,0,1-.28.23c-.21-.45.47-.52.74-.43,0-.2-.18-1.37.24-.87.23-.25.4.1.59.21.25-.24.18-.61.47-.82.4.3-.1.94.65,1.08.37.07,1.27.13,1.46-.24l.11,0c.5-.41.56.13,1.06.13s.7-.65,1.09-.3c.16-.33.29,0,.49-.08a3.9,3.9,0,0,0,.48-.38c.27-.22.63-.34.71-.77a.77.77,0,0,0-.34-.85c-.21-.14-.41-.1-.45-.38,0-.06.18-.34.16-.52v0a.92.92,0,0,0-1-.22c-.36.13-.63.39-1,.34,0-.13,0-.25,0-.37-.22,0-.73-.13-.42-.43-.3,0-.7-.4-.62-.73a.61.61,0,0,1,.15,0s0-.1.06-.11a.33.33,0,0,0,.33.19,2.24,2.24,0,0,1,.06-.41c.26.25.62.31.65.75l.08-.06c.1.19,0,.53.25.58a1.17,1.17,0,0,1,0-.36c.05-.29.09-.07,0-.36s-.3-.45-.25-.64c.22.08.46.47.6.64.05-.25,0-.43.25-.59.14.21.12.56.25.71,0-.06.07-.13.09-.19.13.15.23.36.43.4.27-.39-.05-.53-.17-.89.25-.09.15-.28,0-.43a.53.53,0,0,0,.33-.24c.19.16.35.65.19.8.17.19.1.42.12.67s.08.64.26.75.35-.1.61-.21.77,0,.38-.4c.34-.22.78.55.8.85v.08c.17.22.3.55.55.64s.52-.12.77-.07c-.06.07-.07.17-.19.23h.52c.08.16.26.15.42.08a1.78,1.78,0,0,0-.11.29c.25-.21.65-.14.93-.29a.84.84,0,0,1,.93-.09c-.2.28-.65.4-.18.67.3.17.52,0,.74-.19.1.17.31.11.38.19s.1.32.17.39c.34.37.29-.34.64,0a1,1,0,0,0,1.28.05c.25-.16.34-.34.61-.24.08,0,.32.4.4.49s.11.2.22.29.23,0,.31,0,.11.28.24.36.23,0,.34,0,.4.23.61.21c.55-.06,0-.22,0-.36s.33-.43.57-.47.48.26.76-.07c.1.17.23.23.31.05v0c-.62-.46.11-.6.47-.72a1,1,0,0,0,.6-.34s.26-.61.47-.24c.12.2-.34.48-.43.62s-.12.41-.25.6-1.08.74-.29,1a2.35,2.35,0,0,1,1.3-.84c-.08.1-.44.41-.38.56s.42-.14.48.18-.34.37-.35.59.28.17.23.47c.38-.36.15-.3.62-.3.27,0,.52.06.72-.17s.23-.63.14-.74-.91.28-.88-.38c.28-.05.41-.24.63-.38s.2,0,.3-.08.11-.28.21-.31.07,0,.25.05c-.2-.06.33.34.21.21a.56.56,0,0,1,.21.1,2.68,2.68,0,0,1,.14.34v0c0,.43.42,1.25.71.47a1.22,1.22,0,0,0-.2-.09.13.13,0,0,1,0-.1.87.87,0,0,1,.91.43c.2.4-.27.63-.48.91s-.38.65-.61.9c0,0-.22-.05-.26,0s0,.28,0,.33-.16.2-.41,0c0,.18-.13.25-.31.22.09.37.46.22.6.43s-.28.35-.52.3c.37.26.36.36.08.73-.1.13-.19.24-.3.37s-.29.29-.24.27c-.44.19-.28,0-.13-.38s.19-.59,0-.77c-.12.19-.14.87-.51.6,0,.16-.16.39-.37.29s-.1-.3-.1-.46a1,1,0,0,0-.35.8c-.06-.09-.12-.28-.24-.36,0,.1-.1.19-.12.26a.23.23,0,0,0-.43.1c0,.17.19.37.2.54-.26,0-.27,0-.36.18.06-.09,0,.46,0,.43a3.21,3.21,0,0,0,.17.43c.09.23-.05.48.29.25.18-.12.62-1,.45-.13a2.48,2.48,0,0,1-.48.95l0,.2c0,.37-.25.63-.21,1-.41,0-.56.4-.76.68s-.45.36-.68.68a3.73,3.73,0,0,0-.18.44c-.08.14-.2.23-.28.37a1.2,1.2,0,0,0-.19,1c.19.49.54.34.88.5a4.88,4.88,0,0,1,.83.58,5.64,5.64,0,0,0,1,.82,1.77,1.77,0,0,1,.91.73c.48.7,1.73,1,1.85,1.82.31-.29.35,0,.63,0s.33-.24.64-.1h.1a1.58,1.58,0,0,0,.36.41h.05a4.69,4.69,0,0,0,.87.56,7.08,7.08,0,0,0,1,.46A5.48,5.48,0,0,1,1128,448a4.24,4.24,0,0,0,1.89,1.19c.33.08.65.09,1,.19s.63.38,1,.36h.1c.19-.05.76.39.87.57s0,.67.15,1a1.56,1.56,0,0,0,.82.82c.37.19.7.46,1.08.62a6.11,6.11,0,0,0,2.25.9,3.84,3.84,0,0,0,2.37-.8,1.93,1.93,0,0,0,.75-1.34,2.1,2.1,0,0,1,.62-1.27l.05-.05c.07-.42.73-.8.93-1.22s.08-.72.2-1.12.62-.76.65-1.22c0-.17-.13-.38-.11-.6a3,3,0,0,1,.22-.67l-.11,0c0-1.24,1.22-2.15,1.18-3.31,0-.55-.24-1.08-.27-1.66s.5-1.16.41-1.79l-.05-.05c.05-.36-.2-.62-.35-.92a1,1,0,0,1-.09-1c.11-.36.56-1.82,1-1.13a4.18,4.18,0,0,0-.1-.66c0-.2.11-.43,0-.66l-.05-.05c0-.49-.24-.73,0-1.12a3.79,3.79,0,0,1,1-1,.72.72,0,0,0,.35.34,1.18,1.18,0,0,0-.14-.68c.09,0,.25-.07.33-.07a2.82,2.82,0,0,0-.66-.24c-.34-.06-.4.08-.8.13-.12-.29.68-1.65.87-2a1.93,1.93,0,0,1,.46-.87c.14.2.09.51.3.72.2-.12.12-.09.36-.1-.21-.62-.35-.65,0-1.32a5.85,5.85,0,0,0,.48-1.53l-.1.1c.06-.5.35-.91.41-1.45.09-.78.4-.62,1-.94.18-.11,1-1,1.17-.31a3.08,3.08,0,0,1-.95,1.05,5.25,5.25,0,0,1,.89-.54.6.6,0,0,1,.06.24l.13,0c0,.08,0,.21,0,.3s.15-.09.2-.15c.38.17.28.66.34,1s.41.72.41,1c0,.08-.18.41-.2.59s0,.41,0,.61c0,.36-.14.74.16,1s.85-.13,1.1.13-.24.82-.34,1.09-.12.67.18.9.54.08.52.73v.15c.68.09.61.18.34.74-.12.25-.42,1,.1.93,0-.07,0-.07,0-.15.18,0,.38-.07.56-.12a6.41,6.41,0,0,1-.06,1.75c0,.12-.09.27-.07.38s.18.23.18.38-.25.61-.31.9a2.94,2.94,0,0,0,.49,1.69c.27.58,0,1.36.59,1.88s1.31.18,1.6-.54a2.63,2.63,0,0,0,.6.14c.33,0,.42-.4.62-.45.4-.11.5.38.37.74a2.27,2.27,0,0,1,.28.06c-.24.45-.15.52.17.82s.66.3.8.45c.29.31.17.62.61.83.27.13.62.08.86.24l-.05.15v.3h.05c.13,0,.19.13.35.11-.08.43-.47.57-.45,1.16.64-.15.24.35.14.52a1,1,0,0,0-.1.9,5.2,5.2,0,0,1,.31,1c0,.2-.16.29-.16.5s.14.3.18.47c.1.38-.06.64,0,1,0,.17.22.34.21.5s-.25.13-.26.28c-.05.51.4.88.6,1.31s.28.89.62,1.11c.22,0,.77-.15.82.16s-.3.18-.32.34.09.21.16.42a16.11,16.11,0,0,1,.51,1.83,3.43,3.43,0,0,1-.1,1.66c-.14.44-1,1.37-.36,1.78l.05.05a.89.89,0,0,0,.33.75c.23-.37-.11-.56-.18-.9.29.18.47-.11.76,0-.23.36.06.71.1,1.08,0,0-.06.49,0,.47-.07.14-.29.2-.36.34-.37.8.48,1.54,1.05,1.94.3.21.56.38.84.61s.24.33.47.31.31-.34.43-.33c.32,0,.31.67.62.89a2.11,2.11,0,0,0,1,.3.83.83,0,0,0-.11-.51c.45-.21.59,1.34.56,1.68v.12c.07.16.34.63.55.65.37,0,0-.33.24-.5.63-.53.41.82.66.93s.23-.2.37-.17.19.18.34.23.56.06.65.18-.12.34-.06.57.43.58.67.56c-.06-.71.24-.29.62-.26.08.43.57.41.47.81.24,0,.22.18.32.33s0,.24,0,.33.25.12.3.25c.29.73-.44.1-.73.15-.58.1-.24.84,0,1.1.32.42.79.51,1.15.87l.09.14c.17.38.62.42.6.89,0,.14-.21.16-.18.36s.27.27.32.43-.14.58,0,.85.39.13.45.24-.07.27-.08.42A4.65,4.65,0,0,0,1174,476a7.4,7.4,0,0,1,.46,1.88,1.47,1.47,0,0,1,.41-.48c.38.27.26,1,.85,1.13h0c.05-.41-.29-.71-.28-1.11s.41-.92.73-.71.31.92.54,1.2a2.46,2.46,0,0,0,1,.8,4,4,0,0,0,0-.75c0-.21-.32-.59-.19-.82.22-.4.3.37.39.49s.62.33.65.65-.19.17-.19.29.06.22.12.44a3.4,3.4,0,0,1,.17.83c0,.64-.28,1.2-.28,1.87l0,.09c.07.19.08.36-.09.47.12.24.41.82,0,.91a.62.62,0,0,0,.69,0c.17-.07,0-.16.34-.13a2.25,2.25,0,0,1,.53.23c.24.25.92,1.78.12,1.6.16.46.75.82,1.08,1.14.08-1.1,1.14.6,1.26,1,.26.85.46,1.92,1.36,2.26l.09,0c.64.49.19,1,.33,1.64.17.81,1.09.51,1.39,1.09.2.39-.14.51-.26.84a2.36,2.36,0,0,0,0,.78,2.27,2.27,0,0,0,.9,1.38,2.86,2.86,0,0,0-.67,2.07l0,.19c0,.32,0,.67,0,1,0,.11.1.29.09.4s-.17.27-.24.5,0,.32,0,.49,0,.17,0,.23-.21.13-.24.21a1.42,1.42,0,0,0,.1.93c.09.35.25.68.35,1a7,7,0,0,1,.08,1A4.52,4.52,0,0,0,1186,505c.41.61.16.49,0,1.16a4.88,4.88,0,0,0,0,1.14l-.09.23c0,.6-.15.57-.52,1-.19.21-.15.3-.23.52a1.73,1.73,0,0,1-.23.47,1.76,1.76,0,0,0-.33,1,4.65,4.65,0,0,1-.45,1.19c-.16.36-.39.76-.53,1.08s-.1.7-.25,1c-.3.68-1.2,1.36-1.07,2.2,0,.19.22.31.26.5s-.06.28-.11.49a1.62,1.62,0,0,1-.19.57c-.11.17-.32.23-.39.47l0,.13c.05.52-.27.67-.47,1.08s-.08.65-.42,1-1.37,1.22-1.41,2c0,.48.19.84-.38,1.1-.2.09-.46,0-.66.16s-.24.31-.4.54c-.38.54-.82.53-1.41.66s-.78.6-1.06,1.08a6.4,6.4,0,0,1-.81,1.4c-.23.22-.35.12-.49.48a2.92,2.92,0,0,1-.28.79v.09c0,.31-.23.38-.4.59s-.19.44-.35.63-.47.3-.67.58a3.33,3.33,0,0,0-.34.7c-.2.48-.24,1-.44,1.45s-.21.25-.19.61.19.37,0,.61c-.19-.11-.12-.73-.47-.33s.28.25.24.57-.63,0-.8.14-.3.59-.44.83-.37.28-.49.45-.07.38-.16.51-.4.29-.51.56c0,.1.08.25,0,.37s-.33.38-.41.6a3.3,3.3,0,0,0-.06,1.09c-.14.47-.45.84-.61,1.31a2.71,2.71,0,0,1-.44.7c-.17.27-.12.37-.17.68s-.17.41-.19.62.14.36.24.62c.19.52-.24,1,.13,1.46a5.47,5.47,0,0,0-1.27.57,2.19,2.19,0,0,1-1.7.41c-.54-.06-1-.21-1.6-.23s-1,.07-1.57.09l-.19.14a7.34,7.34,0,0,0-5,2.27c-.43.43-.66.39-1.2.55-.27.08-.39.3-.71.2s-.32-.43-.61-.34c-.45.14-.08.81.22.87s.3-.37.45,0a1.62,1.62,0,0,1-.16.61c-.06.15-.14.61-.41.52-.1,0-.21-.5-.27-.63-.14-.32-.67-1.2-.95-.51-.13-.12-.6-1.76-1-1.08v0a6.2,6.2,0,0,0-1.08-.61c-.27-.08-1-.32-.34-.6a.51.51,0,0,0,.5.28l.54-.37a.52.52,0,0,0-.71-.74c-.27.14-.19.33-.34.46a1.76,1.76,0,0,1-.72.23c-.51.06-.8-.22-1.09-.64.63-.09.65.3,1.19-.28.14-.15.45-.34.4-.57s-.4-.29-.52-.57.16-.4-.23-.43c-.21,0-.55.29-.76.38s-1.1.2-1.16.62c.29.08,1.31-.13,1.35.23.08.64-1.16.69-1.49.76-.6.13-2.87,2.63-3.4,1.83h0a2.7,2.7,0,0,1-.91-.42c-.26-.21-.38-.53-.65-.73s-.65-.28-.95-.46-.52-.59-.88-.7-.56.08-.83,0c-.41-.05-.54-.37-.91-.53a1.07,1.07,0,0,0-.91,0c-.22.17-.15.58-.6.47-.18,0-.22-.19-.38-.28s-.19.05-.38-.2,0-.76-.52-.83h0c-.54-.52-1.35-.24-2-.66a3.94,3.94,0,0,1-1.13-1.74,2.25,2.25,0,0,0-.55-.79c-.34-.27-.79-.41-.85-.95s.17-.56,0-1-.23-.29.19-.76l0,0a5.6,5.6,0,0,0-.08-2.06,7.38,7.38,0,0,0-1.37-2.35c-.41-.5-1.39-1.48-2.07-1.5-.32,0-.3.15-.52.27a.93.93,0,0,1-.6.2,3.47,3.47,0,0,1-1.08.05c-.63-.26-.12-.54.15-.71s.27-.35.46-.52a1.86,1.86,0,0,1,.61-.28h0c0-.77.51-1.35.33-2.11s-.86-1.21-1.08-1.93c-.09-.27,0-.62-.33-.8-.49-.31-.39.08-.47.38s-.41.55-.51.89,0,.61-.08.89a8.83,8.83,0,0,0-.34.89c-.06.27,0,.86-.24,1s-.6-.08-.85-.1a2,2,0,0,0-.89.18c-.14.07-.25.27-.38.32s-.32-.07-.54,0-.9.47-.65-.23c.08-.21.39-.31.51-.48s.1-.33.21-.49c.26-.41.41-.35.88-.29.29,0,.27.24.53-.05s.09-.33.13-.55a4,4,0,0,0,.22-1.28c0-.22-.16-.4-.13-.63s.23-.38.28-.58,0-.33,0-.52.21-.28.24-.47l.09-.09c-.06-.41.2-.68.48-.94s.84-.56.88-.74c.11-.44-1.22-1.69,0-1.8a4.65,4.65,0,0,0-.07-1.35c-.12-.36-.23-1.24-.62-1.36a3.36,3.36,0,0,0,.13,1.17c.16.77-.07.34-.53.65a4.78,4.78,0,0,0-.75.94,6.53,6.53,0,0,0-.57,1.23c-.18.43-.25.8-.65,1a9.91,9.91,0,0,0-1.19.52,15.32,15.32,0,0,0-1.61,1c-.33.28-.34.75-.59,1.09a4.62,4.62,0,0,0-.38.49c-.11.2-.1.41-.29.58s-.41.16-.58.36a6.29,6.29,0,0,0-.31.67,2.23,2.23,0,0,0,.73-.08,2,2,0,0,1-.12,1c-.27.21-.61-.41-.92-.44-.21.85-1.14-.65-1.41-.89,0-.67-.52-.38-.88-.52.11-.23.31-.5.58-.51,0,.33.54.35.72.64.12-.28-.38-.59-.46-.89s.06-.57,0-.83-.22-.27-.29-.47a3.41,3.41,0,0,1,0-.47,1.41,1.41,0,0,0-.44-.9c-.29-.23-.74-.18-1-.41s-.1-.54-.13-1c-.06-.9-.77-1.14-1.46-1.3l-.24,0a6.49,6.49,0,0,1-.62-1,1,1,0,0,1-.22-.47c0-.18,0-.39,0-.58.38-.2.54.54.66.05a1.31,1.31,0,0,0-.35-.89c-.43-.46-.47,0-.94.14s-.59-.23-.25-.64.82-.41.1-.78c-.18-.09-.41-.09-.59-.17s-.37-.31-.55-.33-.71.32-1.08.34a1.24,1.24,0,0,1-1-.45c-.53,0-.71-.45-1.14-.64a.91.91,0,0,0-.94.09c-1,.53-1.24.14-2-.59a6.27,6.27,0,0,0-2.31-1.43c-.53-.1-.67.16-1,.4a2.23,2.23,0,0,1-.94.24h-.15c-1.26,0-2.49-.22-3.75-.15a9.37,9.37,0,0,0-3.34,1c-.67.32-1.28.74-2,1s-1.28.43-1.89.71a9,9,0,0,1-3.74,1c-.62,0-1.22-.07-1.83-.1-.91,0-1.14.43-1.75,1l-.25,0c-.87.08-1.92,1.08-2.66,1.53s-2,.4-2.62,1.29a4.92,4.92,0,0,0-.66,1.49,3.24,3.24,0,0,1-.13.63c-.16.31-.34.21-.59.44-.42.38,0,.87-.41,1.29s-.75.16-1.15.45c-.2.14-.22.52-.58.4s-.22-.58-.61-.64-1,.36-1.45.4c0,.59-.58.07-.85.09s-.36.43-.74.45c-.64,0-.63-1.49-1.44-.4l-.1.13c-.8,0-1.56.08-2.33,0a4.37,4.37,0,0,0-2.49.6c-.73.32-1.51.1-2.22.48-.9.49-.93,1.1-.87,2-.13,0-.32,0-.44,0,0,1.15-2.6-.14-2.12,1.41-.61.27-1.12.25-1.35.92s0,1-1,1.22a12.38,12.38,0,0,1-3.45.28,23.72,23.72,0,0,1-3.69-.38c-.44-.07-.36.1-.78-.22s-.4-.63-.69-.85a3.13,3.13,0,0,0-1.66-.66l-.08.08c-1.16.15-1.27-.44-1.48-1.33-.16-.67-.54-1.51,0-2.14.77.59,1.08.58,1.53-.17a3.14,3.14,0,0,0,.66-2c-.08-.65-.6-1.23-.6-1.89s.64-1.09.08-1.74l-.08-.08a5.09,5.09,0,0,0-.43-3c-.35-.51-.86-1-1.24-1.45s-.76-1.11-1.16-1.68a13.26,13.26,0,0,1-1.53-3.24c-.44-1.22,0-2.49-.83-3.58l-.23.08c.07-.79-.76-1.39-1-2.05a6.82,6.82,0,0,0-1.75-2.29c-.69-.73-.43-1.38-.74-2.18a8.64,8.64,0,0,0-1.29-2.07v.15c-.39-1.83-4-2.78-2.65-4.65,0,.53,1.13,2.44,1.75,2.18s.23-2,.21-2.54a3.43,3.43,0,0,0,.71,1.17c.35.34.24.57.54-.1a3.55,3.55,0,0,0-.11-2c-.18-.34-.85-.58-1.12-.86a4.15,4.15,0,0,1-.69-1.26c-.37-.74-1.22-1.3-1.41-2.11l.08-.08c-.21-.93-1-1.56-1.11-2.56-.16-1.28.52-1.71.93-2.78a3.33,3.33,0,0,0-.19-2.54c-.19-.47-.78-.8-1-1.23s.27-1,.35-1.51a3.6,3.6,0,0,1,1.19-2.77c.09.53-.17,1-.06,1.55s.65.82.31,1.44c.54-.16.76-.17,1-.65s.23-1,.45-1.44c.57-1.15,1.76-1.71,2.8-2.41Z"/><g class="cls-2"><path class="cls-3" d="M119.29,223.29h0l6.12,7.65,7.65,13.76,7.65,18.35-3.06,3.06h0l1.53,6.12h0l15.29,9.18,16.82,6.12h9.18l7.65,7.65,12.24,7.65H208l3.06,12.24v1.53h0l10.71,7.65,13.76,6.12h0l3.06-7.65,4.59,4.59v9.18l1.53,10.71-7.65,7.65L230.94,364h0v27.53h0l4.59,6.12,6.12,7.65,10.71,16.82v6.12h0l3.06,9.18h0l22.94,10.71v16.82l1.53,12.24v21.41h0l4.59,9.18v15.29l-1.53,10.71h0L284.47,546h0l3.06,7.65L289.06,572h1.53l3.06-6.12v13.76h0l6.12,4.59v9.18h0l10.71,7.65,12.24,7.65,12.24,9.18h18.35v-1.53L338,608.71,322.71,598v-7.65l4.59-7.65v-1.53l-7.65-7.65,4.59-7.65h0V544.47l18.35-4.59h0l6.12-10.71v-1.53l-4.59-6.12h9.18L364,501.65l6.12-12.24h0V477.18L383.88,468h12.24l4.59-10.71L403.76,442V422.12l15.29-21.41h0V385.41h0l-9.18-1.53-10.71-10.71h0l-16.82-1.53-9.18-4.59h0l-7.65-1.53-10.71-6.12L350.24,338h0l-9.18-3.06H328.82l-10.71-12.24h-3.06v-3.06h0l-7.65-4.59h0l-7.65,1.53-7.65-1.53h-4.59l-6.12-4.59v-3.06h0l-7.65,3.06h0v9.18l-3.06-1.53,1.53-10.71h0l-9.18,1.53h0L256.94,312h0l-1.53,6.12-3.06,1.53-7.65-6.12h-1.53l-6.12,4.59h-6.12l-4.59-7.65,1.53-12.24,1.53-4.59h0v-4.59h0L221.76,286h0l-16.82,3.06v-6.12l9.18-19.88H198.82l-4.59,13.76-4.59-1.53h0l-9.18,1.53-4.59-1.53-4.59-12.24v-7.65l7.65-19.88,10.71-9.18h6.12l10.71,1.53h0l10.71-4.59,12.24,1.53,7.65,1.53-1.53,6.12h0l1.53,7.65h0l3.06,6.12h6.12v-9.18l-1.53-18.35,6.12-9.18,19.88-7.65h0l1.53-9.18V182l6.12-1.53,12.24-4.59h0l7.65-6.12,6.12-7.65,16.82-7.65,1.53,3.06h10.71l10.71-9.18v-1.53h-9.18l-4.59-3.06v-3.06l6.12-4.59v-1.53L333.41,130h-1.53l-9.18,9.18,4.59-7.65h12.24l12.24,3.06h0l7.65-4.59,12.24-4.59h0l3.06-9.18h-6.12l-3.06-7.65h0L359.41,104l3.06-3.06h0l-1.53-12.24h0l-16.82,4.59-1.53-1.53,3.06-6.12h0V84.12h0L334.94,78h0l-12.24-1.53h0l-7.65,12.24-7.65,4.59h0v4.59l-3.06,12.24-9.18,1.53h0l-3.06,12.24h-4.59l-4.59-3.06v-6.12l3.06-6.12H275.29l-9.18-7.65H260l3.06-4.59V94.82L260,91.76l18.35-15.29,18.35-6.12h0v3.06h0l1.53,1.53h0l4.59-3.06h3.06c1.53,0,4.59-1.53,4.59-3.06l4.59,3.06h0l3.06-1.53h0l-4.59-4.59h-6.12l-1.53-1.53h0l-3.06,4.59-6.12,1.53,4.59-1.53h0l4.59-4.59,7.65-1.53,10.71-1.53h0l1.53-4.59,4.59-7.65V47.41h-7.65l-4.59,3.06L312,55.06h-6.12l-4.59-6.12h-1.53l-15.29,9.18-15.29-4.59h-26v7.65l-12.24-6.12-6.12-4.59h0l-15.29-3.06H197.29l-27.53,7.65L156,41.29h0l-15.29,3.06H130l-10.71-3.06h0L78,52h0l4.59,10.71H68.82L50.47,65.76h0v1.53l12.24,4.59H52L32.12,87.18h0l4.59,4.59h6.12l-6.12,7.65L0,111.65v1.53H1.53L62.71,99.41,78,91.76l29.06-3.06,15.29,9.18-9.18,7.65h0l7.65,3.06-1.53,10.71h0L123.88,130v9.18l-10.71-10.71h-1.53V130l3.06,10.71v7.65l-9.18,13.76-9.18,15.29h0l-1.53,16.82v9.18h0l9.18,7.65,3.06,4.59V234h0l15.29,22.94h1.53l1.53-6.12h0l-10.71-24.47,1.53-4.59Z"/><path class="cls-3" d="M266.12,270.71h0l-3.06-4.59h0l-4.59-1.53v-1.53h-3.06l-6.12-6.12h-4.59l-1.53-1.53h0l-4.59-1.53h-7.65l-6.12,3.06h0l-1.53,4.59h0l1.53,3.06h0l4.59-4.59,4.59-3.06,1.53,1.53V260h0l3.06,1.53h3.06l4.59,3.06h1.53l1.53,3.06h1.53l-1.53,1.53v1.53h16.82Z"/><path class="cls-3" d="M263.06,279.88h10.71l4.59-1.53H286l3.06-4.59h0v-1.53h-9.18l-1.53-1.53h-6.12v-1.53h-1.53l-1.53,1.53h0v1.53l-3.06,3.06H260l3.06,4.59Z"/><path class="cls-3" d="M246.24,276.82h0l3.06,4.59h6.12l3.06-3.06h0l-6.12-1.53Z"/><path class="cls-3" d="M290.59,278.35h0l6.12,1.53h0l1.53-1.53v-1.53h-1.53Z"/><path class="cls-3" d="M364,148.35h0l7.65,1.53h0l4.59-3.06h0l1.53-4.59v-1.53l-3.06-1.53v-4.59h-4.59l-1.53-1.53V130h-3.06l-4.59,4.59-6.12,7.65h0s4.59,1.53,6.12,1.53h4.59L364,148.35Z"/><path class="cls-3" d="M385.41,61.18h0l-12.24-7.65L374.71,52h0V47.41h0l-6.12-3.06-6.12-1.53-1.53-3.06h0l-4.59-4.59h0l-6.12-1.53h-6.12l-7.65,1.53-4.59-1.53h-4.59l-9.18,3.06h0v6.12h0s1.53,3.06,3.06,3.06h10.71c1.53,0,3.06,1.53,4.59,1.53h4.59c1.53,0,6.12,0,7.65,1.53,0,1.53,1.53,1.53,3.06,4.59a4.74,4.74,0,0,1,1.53,3.06l-1.53,6.12a60.15,60.15,0,0,1-9.18,3.06,4.74,4.74,0,0,0-3.06,1.53c-1.53,0-3.06,1.53-4.59,1.53h-7.65l3.06,6.12h15.29a5.34,5.34,0,0,1,3.06,1.53h0l6.12,3.06h6.12V78L364,74.94h0s1.53-3.06,1.53-4.59a11.56,11.56,0,0,0,1.53-6.12V62.71h12.24C382.35,64.24,385.41,62.71,385.41,61.18Z"/><path class="cls-3" d="M338,61.18h0l6.12-3.06h0V56.59l1.53-1.53h0V53.53h-4.59v3.06H338v4.59Z"/><path class="cls-3" d="M310.47,76.47,307.41,78h-3.06v4.59h3.06l1.53-1.53h1.53L312,78l-1.53-1.53Z"/><path class="cls-3" d="M321.18,32.12h0l7.65-1.53h22.94l7.65-3.06V26h0l-13.76-3.06H328.82l-7.65-1.53h-6.12v1.53l6.12,4.59v4.59Z"/><path class="cls-3" d="M307.41,41.29l6.12-3.06h0l-6.12-3.06h0l-3.06,1.53h0l-1.53,4.59h4.59Z"/><path class="cls-3" d="M295.18,48.94l7.65-3.06h1.53V42.82h-9.18l-4.59,3.06h-1.53v3.06h6.12Z"/><path class="cls-3" d="M282.94,55.06h0l6.12-1.53h0l-4.59-4.59V47.41h0L275.29,52h0Z"/><path class="cls-3" d="M275.29,38.24h0l-6.12-1.53h0l-3.06,1.53-3.06-1.53h-6.12l-1.53-1.53H244.71a5.34,5.34,0,0,0-3.06,1.53l-6.12,4.59h0c0,1.53,0,3.06,1.53,3.06h1.53c-1.53,0-3.06,0-4.59,1.53h-4.59v1.53H234c1.53,0,4.59,1.53,4.59,1.53h4.59l13.76-1.53h15.29l1.53-3.06V42.82l-3.06-4.59Z"/><path class="cls-3" d="M298.24,39.76h0l1.53-1.53h0l1.53-6.12H290.59l-1.53,1.53H286v4.59h12.24Z"/><path class="cls-3" d="M296.71,29.06h10.71l1.53-1.53v4.59h4.59l3.06-4.59V26h-7.65l1.53-1.53V22.94H295.18l-3.06,1.53h0Z"/><path class="cls-3" d="M307.41,19.88h7.65c3.06,0,9.18,1.53,10.71,1.53h0l3.06-1.53h0l-1.53-4.59H315.06l-6.12-1.53h-4.59l3.06,6.12Z"/><path class="cls-3" d="M331.88,15.29h10.71l6.12,1.53h6.12v6.12h3.06c1.53,0,3.06,0,4.59,1.53h0s6.12-3.06,7.65-4.59c1.53,0,7.65-3.06,9.18-3.06h0l1.53-3.06h19.88c1.53,0,1.53,0,3.06-1.53h1.53c1.53-1.53,3.06-1.53,4.59-1.53-3.06,1.53-6.12,1.53-9.18,3.06a5.34,5.34,0,0,0-3.06,1.53H383.88v1.53l4.59,4.59v1.53c0,1.53-1.53,1.53-1.53,3.06h26a15.82,15.82,0,0,1,1.53,6.12v4.59a4.74,4.74,0,0,1-1.53,3.06l-1.53,1.53h1.53A5.34,5.34,0,0,0,416,42.82h7.65v6.12L422.12,52c-1.53,1.53-1.53,3.06-3.06,3.06H416c-1.53,0-4.59,1.53-6.12,1.53h0v7.65c0,1.53,3.06,13.76,3.06,15.29L416,85.65h7.65l1.53,3.06h0l6.12-1.53h0c1.53-3.06,1.53-4.59,3.06-6.12,1.53-3.06,3.06-4.59,3.06-6.12h6.12c1.53,0,1.53-3.06,1.53-4.59l6.12-4.59,9.18,1.53h0V62.71L468,59.65h0l4.59-4.59h12.24l7.65-1.53h0l7.65-6.12V45.88h0l-7.65-1.53h0L494,42.82h10.71V36.71a1.5,1.5,0,0,1,1.53-1.53l9.18-1.53h0V30.59h0c0-1.53-1.53-4.59-1.53-6.12l1.53-1.53L520,16.82l4.59-4.59,15.29-3.06,4.59-1.53h0l-9.18-3.06h-6.12c-1.53,0-3.06,0-4.59,1.53H520l-4.59-3.06h0L504.71,0H487.88c-1.53,0-6.12,1.53-7.65,3.06H463.41l1.53,3.06h-7.65l-3.06,1.53h-4.59l-3.06,1.53-9.18-3.06h0l-7.65,3.06-10.71,3.06h-6.12c3.06,0,10.71-3.06,12.24-3.06h1.53V7.65L408.35,6.12s-9.18,1.53-13.76,1.53H383.88c-1.53,0-1.53,0-3.06,1.53h-3.06l-12.24,1.53H354.82V9.18h0l-9.18-1.53h-1.53L338,9.18l-4.59,1.53h0v1.53c-3.06,1.53-3.06,1.53-1.53,3.06Z"/><path class="cls-3" d="M221.76,44.35h0l3.06-1.53h0a3.29,3.29,0,0,1,3.06-3.06c1.53,0,4.59-1.53,4.59-3.06,3.06-1.53,6.12-3.06,7.65-3.06h6.12l3.06-3.06h0l-7.65-3.06h0L234,29.06l-7.65,3.06c-1.53,0-9.18,0-10.71,3.06a11.84,11.84,0,0,0-1.53,4.59v3.06h0C215.65,42.82,220.24,44.35,221.76,44.35Z"/><path class="cls-3" d="M250.82,27.53h1.53c1.53,0,6.12,1.53,7.65,1.53h29.06c1.53,0,1.53-1.53,1.53-3.06h-3.06l-3.06-4.59H272.24l-1.53-3.06H253.88l-3.06,3.06-4.59,1.53h0Z"/><path class="cls-3" d="M498.59,68.82h0c3.06,0,3.06,0,4.59,1.53l1.53,4.59h9.18l9.18-3.06h0l3.06-3.06h0V65.76h0l-4.59-6.12h-4.59c-1.53,0-3.06,1.53-4.59,1.53s-3.06,0-4.59,1.53h-3.06l-4.59-3.06h-1.53v4.59c0,1.53-1.53,3.06,0,4.59Z"/><path class="cls-3" d="M532.24,117.76l-1.53,6.12h1.53c1.53,0,1.53,1.53,3.06,1.53h0l6.12-3.06h3.06l1.53-4.59h0v-6.12a1.5,1.5,0,0,0,1.53-1.53v-3.06h0l-4.59,1.53h-3.06l-1.53,3.06h-4.59c-1.53,0-1.53,0-1.53,1.53v4.59Z"/><path class="cls-3" d="M547.53,102.47h0l3.06,3.06,1.53,1.53v4.59h4.59v3.06h0l-3.06,1.53h0a1.5,1.5,0,0,0,1.53,1.53h0l-6.12,6.12h0l4.59,1.53v1.53L549.06,130h0l1.53,1.53h0l9.18-3.06,6.12,1.53h0l3.06-1.53H572v3.06H559.76l1.53,1.53h-9.18v3.06h0l6.12,1.53,6.12,6.12v7.65L562.82,156H535.29l-1.53,3.06h0v9.18l-3.06,7.65h0v3.06h0l3.06,1.53-3.06,6.12h6.12s3.06-1.53,3.06,0c1.53,1.53,1.53,4.59,1.53,4.59h1.53l6.12-4.59h7.65v-1.53l3.06-1.53h0l4.59-6.12v-1.53l-1.53-3.06,3.06-4.59h3.06l6.12-3.06h0l3.06-3.06h0v-3.06l1.53-3.06h9.18l4.59-1.53h0l1.53-1.53h7.65v1.53h0l3.06,3.06,4.59,3.06,3.06,3.06h0l4.59,1.53,4.59,3.06,3.06,3.06v9.18h0l3.06-1.53h0v-3.06l3.06-1.53h0l-3.06-6.12,1.53-1.53,4.59,3.06h1.53v-4.59h0l-9.18,4.59H624l-6.12-3.06-3.06-4.59h0l-4.59-3.06v-4.59h7.65l1.53,3.06h0l7.65,7.65h4.59l4.59,3.06v1.53h0l3.06,3.06v6.12h0l4.59,3.06,3.06,3.06h4.59l7.65,3.06h1.53c1.53,0,0,0,0-1.53l-4.59-1.53h0l-3.06-1.53-1.53-6.12v-1.53l6.12-3.06h3.06l4.59,1.53h7.65l-3.06,1.53h-4.59v4.59h0l3.06,6.12v3.06h3.06l7.65,7.65h1.53l3.06-1.53h0v-1.53h4.59l1.53,1.53h0l6.12-1.53,3.06-1.53h0l-1.53,1.53-4.59,1.53h0l-3.06,4.59h0v1.53h0l1.53,1.53h7.65v-1.53l-3.06-1.53v-1.53h4.59v7.65l-1.53,6.12v7.65h-6.12l-7.65-4.59h0l-6.12,3.06h-7.65l-7.65-3.06-9.18-3.06-6.12-3.06h0l-6.12,3.06h0v7.65h-6.12l-10.71-4.59L624,209.53h0L613.29,208l-7.65-3.06,1.53-3.06,1.53-3.06h0v-7.65H573.53l-9.18,4.59-6.12,4.59H541.41l-4.59,10.71-10.71,3.06h0l-3.06,7.65-1.53,7.65-13.76,9.18h0l-7.65,13.76L492.47,260h0c0,1.53,0,1.53,1.53,3.06v9.18a11.56,11.56,0,0,0,1.53,6.12c0,1.53,1.53,4.59,1.53,4.59l-4.59,7.65h0v9.18s0,3.06,6.12,10.71l3.06,3.06a1.5,1.5,0,0,0,1.53,1.53v1.53s0,1.53,12.24,13.76L526.12,338l9.18,6.12h1.53l4.59-3.06,9.18-4.59,4.59,3.06h0l15.29-3.06h0l4.59-3.06,10.71,3.06,3.06,6.12h0a5.34,5.34,0,0,0,3.06,1.53h3.06c1.53,0,3.06,0,3.06,1.53l4.59,7.65v4.59L598,368.59h0l15.29,22.94v12.24l1.53,6.12,1.53,7.65-4.59,6.12h0L608.71,442h0l4.59,9.18,4.59,6.12,1.53,7.65,1.53,15.29,1.53,7.65h0l6.12,7.65,4.59,13.76v4.59l-1.53,3.06v1.53l6.12,4.59v6.12h0l10.71-3.06,13.76,1.53h0L676,516.94l7.65-9.18,3.06-6.12,3.06-1.53h0l3.06-15.29,4.59-3.06,3.06-1.53h0V458.82l9.18-7.65,10.71-4.59h0l4.59-15.29h0V411.41h0l-4.59-13.76L728,374.71c1.53-1.53,4.59-4.59,4.59-6.12s4.59-4.59,6.12-6.12,4.59-3.06,6.12-4.59l9.18-9.18h0l4.59-9.18,4.59-6.12h0l1.53-6.12,1.53-9.18v-4.59h-6.12l-7.65,1.53h-7.65l-6.12-1.53-3.06-6.12h0l1.53,1.53h0l7.65-1.53h0l1.53-4.59,7.65-1.53,9.18-3.06h0l7.65-6.12,1.53-1.53h0v-3.06h6.12l4.59-1.53h0l1.53-3.06,1.53-1.53,4.59-1.53h0v-3.06l4.59-7.65,3.06-4.59h0V260h0l-4.59-4.59h0l-7.65-3.06,1.53-4.59h0l-1.53-6.12h0l-9.18,9.18h-7.65l1.53-3.06h0l-1.53-3.06h0l-1.53,1.53-3.06-6.12h0l-9.18-7.65-3.06-4.59,1.53-1.53h4.59l4.59,3.06,1.53,4.59,3.06,6.12h6.12l4.59,3.06h0l7.65-3.06,4.59,6.12,3.06,3.06h0l16.82,3.06h0l12.24-1.53,7.65,6.12H832V260h0l6.12,1.53h0l4.59,6.12h0l9.18-1.53,3.06,15.29,1.53,7.65,3.06,7.65,3.06,4.59v3.06h0l4.59,6.12c0,1.53-1.53,3.06,0,4.59s3.06,6.12,3.06,7.65h0l4.59,3.06h0l3.06-3.06,3.06-3.06h0v-3.06l3.06-3.06h0V290.59h1.53l3.06-3.06h0l1.53-3.06,6.12-3.06h0v-4.59l4.59-4.59,4.59-1.53h0v-6.12l10.71-1.53,7.65-1.53,6.12,6.12h0l6.12,3.06,1.53,3.06v3.06h0l3.06,7.65,3.06,6.12h0l4.59-3.06,3.06-1.53v6.12h0l3.06,7.65,3.06,6.12v15.29h0l6.12,6.12,1.53,3.06v10.71h0l6.12,4.59,3.06,4.59h0l9.18,3.06h0V341.06h0V338h0l-6.12-6.12-6.12-4.59-3.06-6.12-1.53-6.12V304.35l1.53-1.53,3.06,3.06h0l6.12,3.06,3.06,4.59h0l3.06,1.53h1.53v7.65H988l3.06-3.06,3.06-4.59,7.65-7.65h0V292.12h0l-4.59-4.59-6.12-7.65-4.59-6.12,1.53-4.59,3.06-6.12h9.18l3.06,1.53,1.53,1.53h4.59l3.06-4.59,7.65-4.59h4.59l1.53-1.53h3.06l1.53-3.06,4.59-1.53h0l4.59-9.18h0v-3.06h1.53v-3.06l1.53-3.06h1.53v-3.06h0l-1.53-4.59h0l-3.06-3.06h0l-3.06-1.53-1.53-4.59v-1.53h0l-1.53-4.59h0l-3.06-3.06h0l-3.06-1.53-4.59-3.06v-4.59l1.53-3.06,4.59-3.06,3.06,1.53h0v-4.59h-3.06l-3.06-1.53h0l-3.06,1.53h0l-1.53,1.53h0v-1.53h-1.53l-7.65-3.06-1.53-1.53h1.53l1.53-3.06,4.59-4.59,1.53,1.53V182h0l1.53,1.53h1.53l6.12-3.06,4.59,1.53,3.06,1.53v1.53h0l3.06,3.06h0l3.06,1.53,4.59,9.18,3.06,4.59h0l1.53-1.53h4.59l1.53-1.53h0l1.53-4.59h0l-3.06-6.12h0l-3.06-4.59-3.06-3.06h0l-3.06-1.53,1.53-1.53,1.53-1.53h0l1.53-3.06h0l-3.06-4.59v-3.06l1.53-3.06,1.53-1.53,3.06,1.53h1.53l3.06-1.53h0l6.12-12.24h0V137.65h0l-3.06-7.65h0l-1.53-1.53v-4.59l3.06,3.06h0l3.06,1.53c3.06,4.59,3.06,4.59,4.59,4.59a22,22,0,0,1,3.06,4.59l1.53,1.53h0l1.53,1.53,3.06,3.06a3.29,3.29,0,0,0,3.06,3.06l1.53,1.53h0a18.93,18.93,0,0,0,3.06-4.59l3.06,1.53h1.53v-1.53l-9.18-7.65-1.53-3.06h3.06v-1.53l-4.59-6.12h0l-7.65-4.59-6.12-9.18h-6.12v4.59l-3.06-3.06-9.18-4.59h-3.06v3.06h0l-1.53-1.53h-1.53l-4.59-1.53h-4.59l3.06-3.06h0v-4.59l1.53-1.53h0l1.53-3.06,1.53-4.59h19.88l1.53-1.53h6.12l1.53,1.53h0l3.06,1.53h0l4.59-1.53h3.06l1.53-1.53V88.71h-3.06V82.59l1.53-1.53h4.59l4.59,4.59H1092l1.53-3.06h0V78h3.06v3.06h0l3.06,3.06v1.53l-1.53,1.53h0V97.88l-1.53,1.53L1092,97.88h-1.53v1.53l1.53,3.06V104h0l1.53,3.06h0l4.59,4.59h0l3.06,1.53,15.29,15.29h3.06v-1.53l3.06-3.06v-1.53l-3.06-3.06h1.53l-1.53-3.06v-1.53h1.53l1.53-1.53v-1.53l-1.53-3.06h0l-4.59-3.06v-3.06h0l-6.12-6.12h0l-1.53,1.53h0V93.29h0l-1.53-1.53h1.53l1.53-1.53,3.06,1.53h1.53l1.53-1.53h6.12l1.53,1.53,4.59,3.06h1.53V93.29l-1.53-4.59,1.53-1.53h0l1.53-3.06,3.06-1.53h3.06V81.06h3.06l3.06,1.53h0V81.06h0l-3.06-1.53L1136.35,78l-4.59-3.06h-1.53a4.74,4.74,0,0,0-1.53-3.06l-1.53-1.53,4.59,3.06h7.65l6.12,3.06h9.18V73.41h0l-1.53-3.06h0a4.74,4.74,0,0,0-1.53-3.06h0a31.11,31.11,0,0,0-7.65-1.53h-3.06a15.24,15.24,0,0,1-6.12-1.53h-1.53l-3.06-3.06h-1.53c-1.53,0-1.53-1.53-3.06-1.53s-10.71-3.06-13.76-3.06h-9.18c-1.53,0-1.53-1.53-3.06-1.53h0s-3.06-1.53-4.59-1.53h-1.53c-3.06,0-3.06,0-3.06-1.53h-13.76V47.41h0v1.53h-3.06l-3.06-1.53h-27.53l-1.53-1.53a22,22,0,0,0-4.59-3.06h-24.47c-1.53,0-3.06-1.53-4.59-1.53h0a4.74,4.74,0,0,1-3.06-1.53,1.5,1.5,0,0,0-1.53-1.53h-7.65l-3.06,3.06h0l-1.53-1.53H988l-6.12-1.53h-3.06a5.34,5.34,0,0,0-3.06,1.53h0a1.5,1.5,0,0,0,1.53,1.53H966.59l-7.65-1.53h-4.59v1.53l1.53,3.06h-6.12c-1.53,0-4.59-3.06-6.12-4.59l-3.06-3.06L936,33.65h-9.18l-4.59-1.53h0v3.06H911.53l-4.59-1.53H893.18l-1.53-1.53h-1.53l-4.59,1.53h-3.06l-4.59,1.53h0l1.53-1.53h3.06l3.06-3.06V29.06L884,27.53h0L880.94,26h-3.06l-3.06-1.53H859.53l-3.06-1.53-1.53-1.53h-6.12l-3.06,1.53v1.53L847.29,26h-4.59l-3.06,1.53L836.59,26H832c-1.53,0-4.59,1.53-4.59,1.53h-7.65a4.74,4.74,0,0,0-3.06,1.53v1.53h0v1.53h-3.06l-6.12,1.53-4.59,1.53c-1.53,0-1.53,0-1.53,1.53a4.74,4.74,0,0,0,1.53,3.06h1.53c1.53,0,1.53,1.53,3.06,1.53h-9.18c-1.53,0-1.53,0-3.06,1.53h-4.59l-1.53-3.06h-7.65v3.06h0l4.59,1.53,3.06,3.06v1.53h0l3.06,1.53h0L790.71,52h0a5.34,5.34,0,0,0,1.53,3.06l-3.06,4.59a5.34,5.34,0,0,1-3.06,1.53h-1.53l3.06-3.06V56.59l-1.53,1.53h0a5.34,5.34,0,0,0-3.06-1.53c0-1.53-1.53-3.06-1.53-4.59h0l-3.06-4.59V45.88h0s-3.06-3.06-4.59-3.06h-7.65v3.06l-1.53,1.53a1.5,1.5,0,0,0-1.53,1.53h0V52h1.53v3.06l-1.53-1.53h0L758.59,52l-7.65-4.59h-1.53v3.06h0A1.5,1.5,0,0,1,750.94,52h-3.06l-1.53-1.53h-9.18L735.65,52h-3.06V50.47h-6.12c-1.53,0-7.65,3.06-7.65,3.06l-3.06,1.53h0v1.53l-3.06,1.53-3.06,1.53h3.06V58.12l-3.06-3.06h0L702,53.53h0v1.53h0l1.53,1.53v3.06h-4.59V58.12l-3.06-3.06h0l-4.59-1.53H672.94L663.76,52V50.47h0l-3.06-3.06h-9.18L650,45.88h-1.53V44.35L650,39.76V38.24h-1.53l-4.59,3.06h0l-1.53,3.06-1.53-1.53h-1.53v1.53l1.53,1.53h-4.59V44.35h-1.53c-3.06,0-3.06,0-3.06,1.53h-3.06v3.06h0l-1.53,1.53H624v3.06h-1.53l-1.53,1.53h-3.06v3.06h0v3.06h0l-1.53-1.53h-1.53L602.59,73.41h-1.53l-1.53,1.53h-7.65v1.53h-1.53l-3.06,4.59h0l1.53,1.53-1.53,1.53v1.53h3.06v7.65h0a5.34,5.34,0,0,0,3.06,1.53h3.06L598,93.29h6.12l1.53,3.06h0l1.53,1.53v1.53h0l1.53,1.53v1.53h0l1.53,1.53v4.59h0a5.34,5.34,0,0,0,3.06,1.53h4.59v-1.53a5.34,5.34,0,0,0,3.06-1.53c1.53,0,1.53,0,3.06-1.53l1.53-3.06h0V96.35c1.53,0,1.53,0,4.59-1.53h0V93.29l1.53-1.53h1.53l-1.53-3.06h0l-3.06-1.53V84.12l1.53-1.53h0l1.53-3.06h3.06l4.59-3.06,1.53-1.53V73.41l-1.53-3.06,1.53-1.53,4.59-1.53H650l3.06,1.53v1.53h0l-1.53,3.06-3.06,1.53h0L645.41,78h-1.53l-1.53,1.53h0v4.59h0v4.59h3.06l1.53,1.53a1.5,1.5,0,0,0,1.53,1.53h6.12l1.53-1.53h7.65l1.53,1.53h-1.53l-7.65-1.53H643.88l-1.53,1.53v1.53h4.59A4.74,4.74,0,0,0,650,94.82l1.53,1.53v3.06h-3.06l-1.53-1.53h-1.53l-1.53,1.53c-3.06,3.06-3.06,4.59-3.06,4.59,0,1.53,1.53,1.53,3.06,1.53v1.53h-3.06l-1.53,1.53h-3.06l-3.06,4.59h-1.53l-6.12,1.53h0L624,116.24h-9.18l-1.53-1.53v-1.53h-7.65a1.5,1.5,0,0,0-1.53-1.53h-3.06l-1.53-1.53h0l3.06-1.53h0V104h0a5.34,5.34,0,0,1-1.53-3.06h0v1.53H598a5.34,5.34,0,0,0-3.06,1.53v4.59h0l1.53,1.53v1.53a4.74,4.74,0,0,0,1.53,3.06h0l-3.06-1.53h-1.53l-1.53,1.53h-4.59l-3.06,6.12-3.06,3.06h-3.06v-3.06h-3.06L572,114.71h0l-3.06-1.53-3.06-4.59h0l-3.06-1.53v-1.53l4.59-6.12V97.88h-4.59l3.06-1.53V94.82h-6.12l-3.06,4.59h-3.06v3.06a1.5,1.5,0,0,1-1.53-1.53C549.06,102.47,549.06,102.47,547.53,102.47Zm215.65,50.47c-1.53,0-3.06,0-3.06-1.53h-7.65a1.5,1.5,0,0,1-1.53,1.53h-1.53c0,1.53,0,1.53,1.53,1.53s3.06,3.06,6.12,3.06h3.06v3.06c0,3.06,1.53,3.06,1.53,3.06h4.59l1.53,1.53h0l-3.06,3.06v1.53l6.12,6.12a1.5,1.5,0,0,0,1.53,1.53v6.12h-6.12c-1.53,0-3.06,0-4.59-1.53h0a4.74,4.74,0,0,1-3.06-1.53H754a5.34,5.34,0,0,1-3.06-1.53v-1.53c0-1.53,1.53-1.53,1.53-3.06l1.53-3.06h0v-3.06c0-1.53,0-1.53-1.53-1.53a1.5,1.5,0,0,1-1.53-1.53c0-1.53-3.06-3.06-4.59-3.06L741.76,156l-6.12-1.53,4.59-4.59,9.18-4.59h6.12l3.06,1.53a28.53,28.53,0,0,0,4.59,6.12Zm7.65-94.82h0c0,1.53-1.53,0,0,0-1.53,0-3.06,0-3.06-1.53h0Zm-74.94,6.12,3.06,3.06h-3.06c-1.53,0-1.53-1.53-3.06-1.53h0s-3.06-1.53-4.59-1.53h0v3.06h-1.53l-1.53-1.53V62.71h0l-3.06-3.06,1.53,1.53,4.59,1.53h0l7.65,1.53-1.53-1.53h0l1.53,1.53Zm-24.47,93.29h3.06l1.53-4.59,3.06-3.06h0v1.53h4.59V156h3.06c0,1.53,0,1.53,3.06,1.53a1.5,1.5,0,0,0,1.53-1.53c1.53,0,3.06,0,3.06-1.53h6.12v3.06h0l4.59,1.53h4.59c1.53,0,1.53,1.53,3.06,1.53l3.06,3.06,3.06,6.12-1.53,1.53a5.34,5.34,0,0,1-3.06,1.53H703.53c-1.53,0-1.53-1.53-3.06-1.53-1.53-1.53-6.12-3.06-6.12-3.06H683.65c-1.53,0-3.06,1.53-4.59,1.53H668.35l-4.59-3.06v-3.06s3.06-3.06,3.06-4.59c4.59,0,6.12,0,4.59-1.53Zm35.18-7.65L702,151.41h0v1.53l-1.53-1.53h-6.12v-1.53a5.34,5.34,0,0,1,3.06-1.53,5.34,5.34,0,0,0,3.06-1.53h4.59l1.53,3.06Zm15.29,142.24-1.53-7.65h0l-4.59-7.65-3.06-3.06V263.06h0l-7.65-7.65-1.53-4.59-4.59-9.18-6.12-9.18-3.06-6.12v-1.53l1.53,1.53,3.06,4.59h0l4.59,1.53h0l6.12,6.12,3.06,10.71h0l6.12,6.12v7.65h0l3.06,7.65h0c1.53,0,3.06,1.53,4.59,1.53,0,1.53,1.53,3.06,3.06,4.59s3.06,3.06,3.06,4.59l1.53,6.12v7.65h0l1.53,4.59ZM705.06,59.65Z"/><path class="cls-3" d="M598,171.29h0l3.06-1.53h0v-3.06h0l-1.53-3.06h0l-3.06,3.06v1.53l1.53,3.06Z"/><path class="cls-3" d="M593.41,174.35v6.12l-1.53,4.59H598v-1.53l3.06-3.06h0v-4.59h0l-1.53-3.06h-3.06l-3.06,1.53Z"/><path class="cls-3" d="M616.35,188.12h0l4.59,1.53h0v-4.59H610.24l1.53,3.06h4.59Z"/><path class="cls-3" d="M723.41,42.82h0c3.06,0,4.59,0,4.59,1.53h10.71V42.82l-6.12-3.06V35.18a5.34,5.34,0,0,1,1.53-3.06c0-1.53,0-1.53,1.53-1.53h6.12c1.53,0,1.53,0,3.06-1.53l1.53-1.53h3.06c1.53,0,1.53,0,1.53-1.53h7.65V24.47l-3.06-4.59h0c-1.53,0-6.12-1.53-7.65,0h-4.59a51.78,51.78,0,0,0-12.24,4.59h-1.53L728,26c-1.53,1.53-6.12,9.18-6.12,9.18v1.53l1.53,6.12Z"/><path class="cls-3" d="M842.71,19.88h0l9.18-4.59h1.53V13.76l-16.82-1.53h0v6.12h6.12Z"/><path class="cls-3" d="M807.53,15.29h0a15.24,15.24,0,0,1,6.12-1.53h1.53c1.53,0,1.53,0,3.06,1.53h0c1.53,0,1.53,1.53,3.06,1.53h12.24V15.29l-4.59-3.06h0l-6.12-1.53-3.06-3.06H807.53v4.59L806,13.76v1.53h1.53Z"/><path class="cls-3" d="M952.82,33.65h0A33.34,33.34,0,0,0,962,32.12l3.06-1.53h27.53V29.06c0-1.53-3.06-3.06-4.59-3.06H971.18a5.34,5.34,0,0,1-3.06-1.53H954.35s-1.53,0-1.53,3.06c0,1.53,0,3.06,1.53,4.59Z"/><path class="cls-3" d="M740.24,460.35c0,1.53-3.06,4.59-3.06,6.12v13.76h0a5.34,5.34,0,0,0,3.06,1.53h7.65c1.53,0,4.59,0,6.12-1.53h0c0-1.53,1.53-4.59,1.53-6.12h0v-7.65s0-3.06,1.53-4.59h0v-1.53c0-1.53,1.53-3.06,3.06-4.59h0a4.74,4.74,0,0,1,1.53-3.06,71.1,71.1,0,0,0,4.59-13.76h0V417.53h-1.53l-4.59,3.06h0L754,431.29h-6.12l-6.12,3.06h0s1.53,3.06,0,3.06h0V442c-1.53,3.06,0,6.12,0,9.18v4.59C740.24,458.82,740.24,458.82,740.24,460.35Z"/><path class="cls-3" d="M893.18,321.18l-1.53-3.06h0l-1.53-1.53h0c-1.53,0-1.53,0-1.53,1.53v15.29a5.34,5.34,0,0,0,1.53,3.06h3.06c1.53,0,1.53,0,1.53-1.53v-3.06c0-3.06,0-3.06,1.53-4.59h0v-1.53h-1.53c0-1.53-1.53-3.06-1.53-4.59Z"/><path class="cls-3" d="M1000.24,397.65h0l7.65,3.06h22.94v-1.53l-4.59-4.59h-6.12c-1.53,0-3.06-1.53-4.59-1.53h-10.71l-4.59-3.06h-4.59a5.34,5.34,0,0,0,1.53-3.06V376.24h0l-1.53-1.53-6.12-6.12-3.06-3.06v-6.12h0l-3.06-1.53-10.71-4.59-3.06-4.59-3.06-3.06a26.41,26.41,0,0,1-4.59-6.12h0L960.47,338H948.24l3.06,6.12h0a61,61,0,0,1,6.12,4.59h0s3.06,3.06,4.59,3.06c1.53,1.53,1.53,3.06,3.06,3.06,0,1.53,3.06,6.12,4.59,7.65a5.34,5.34,0,0,1,1.53,3.06c0,1.53,0,1.53,1.53,4.59a5.34,5.34,0,0,0,1.53,3.06c0,1.53,3.06,6.12,4.59,7.65h0l3.06,1.53a18.93,18.93,0,0,0,4.59,3.06c3.06,1.53,4.59,3.06,6.12,3.06v3.06C992.59,394.59,998.71,397.65,1000.24,397.65Z"/><path class="cls-3" d="M1064.47,411.41h0c3.06,0,6.12,0,6.12-1.53l3.06-3.06a1.5,1.5,0,0,0,1.53-1.53h1.53c1.53,0,1.53,0,1.53-1.53v-1.53a1.5,1.5,0,0,0-1.53-1.53h-1.53l-4.59,1.53h-16.82l-4.59-1.53h-3.06l-4.59,3.06v-1.53l-1.53-1.53h-3.06v3.06h1.53c1.53,0,1.53,0,3.06-1.53h0l3.06,1.53h1.53l4.59,3.06h0a1.5,1.5,0,0,1,1.53,1.53h3.06v-4.59h-3.06c-1.53,0-3.06,0-3.06-1.53h15.29a3.29,3.29,0,0,0-3.06,3.06h0v1.53c1.53,3.06,1.53,3.06,3.06,4.59Z"/><path class="cls-3" d="M1033.88,377.76h0l3.06-6.12,1.53-3.06,1.53-1.53h1.53l1.53-1.53h0v-4.59l3.06-3.06h3.06v-1.53l-3.06-3.06-3.06-3.06c-1.53-1.53-1.53-3.06-3.06-3.06h0l3.06,1.53h0v-4.59a1.5,1.5,0,0,0,1.53-1.53,1.5,1.5,0,0,1,1.53-1.53h1.53V338h0l-1.53-1.53h-3.06v-1.53h-1.53c0-1.53-1.53-1.53-3.06-1.53h0c0,1.53-3.06,6.12-3.06,7.65-1.53,1.53-1.53,1.53-3.06,1.53h-3.06l-3.06,4.59-6.12,1.53h-3.06v7.65h-1.53a1.5,1.5,0,0,0-1.53-1.53h-3.06V364h0l3.06,3.06v9.18h16.82l3.06,1.53-1.53,3.06h0a5.34,5.34,0,0,1,1.53-3.06Z"/><path class="cls-3" d="M1081.29,379.29v-3.06h0l-1.53-1.53h-3.06v3.06h0l1.53,1.53h3.06Z"/><path class="cls-3" d="M1088.94,382.35h0l1.53-3.06h3.06l3.06,1.53c3.06,1.53,3.06,3.06,3.06,3.06h0q2.29-2.29,0-4.59c-1.53-1.53-1.53-1.53-3.06-1.53a1.5,1.5,0,0,0-1.53-1.53h-6.12l-1.53-1.53h0l-1.53,1.53h0v1.53h0Z"/><path class="cls-3" d="M1153.18,382.35h0l-3.06-4.59h0l-3.06-1.53c-3.06-1.53-6.12-3.06-7.65-3.06h-4.59c-1.53,0-1.53-1.53-3.06-1.53h-3.06l-6.12-3.06h-1.53l-1.53,1.53v-1.53h0l-3.06-3.06h-3.06v3.06h0l1.53,1.53h4.59l-4.59,4.59h-1.53v-3.06h0l-1.53-4.59V364h-9.18a5.34,5.34,0,0,0-3.06,1.53h-1.53l-1.53,1.53h0c0,1.53,0,1.53,1.53,1.53h-3.06l-3.06,4.59h4.59v-3.06h0l3.06,1.53h0v1.53h0l1.53,1.53a1.5,1.5,0,0,1,1.53,1.53c0,1.53,0,3.06,1.53,3.06v3.06h0l1.53,1.53h0l1.53-3.06h4.59l1.53,3.06h0c1.53,0,3.06,1.53,4.59,1.53h4.59l3.06,1.53,1.53,1.53v9.18l-4.59,3.06h0l3.06,1.53h6.12l1.53,1.53c0,1.53,0,1.53,1.53,1.53H1144l1.53-1.53v-1.53l-1.53-1.53h1.53c1.53,0,1.53,0,1.53-1.53l1.53-1.53h6.12l1.53,1.53h1.53l1.53,3.06h0l1.53,1.53v1.53h0l1.53,1.53h10.71l3.06,1.53,1.53,3.06v1.53h0l1.53,1.53V416h0l1.53,1.53h3.06v1.53h0l4.59,1.53h0l3.06-3.06h0V416h-1.53a1.5,1.5,0,0,0-1.53-1.53l-1.53-1.53h-1.53l-7.65-1.53-1.53-4.59h0l-3.06-1.53H1170a1.5,1.5,0,0,0-1.53-1.53,1.5,1.5,0,0,1-1.53-1.53h1.53a1.5,1.5,0,0,0-1.53-1.53v-1.53h-3.06v-1.53h0l-1.53-3.06h-1.53c-1.53,0-1.53-1.53-3.06-1.53l-1.53-1.53h1.53l-1.53-4.59h0l-3.06-4.59Z"/><path class="cls-3" d="M1171.53,393.06h6.12l1.53-1.53c1.53,0,1.53,0,1.53-1.53l3.06-3.06h1.53v-6.12h0l-4.59-3.06h-1.53v7.65H1170a1.5,1.5,0,0,0-1.53,1.53c-1.53,3.06,1.53,4.59,3.06,6.12Z"/><path class="cls-3" d="M1192.94,390c0,1.53,1.53,1.53,0,0v6.12h0l1.53,1.53h4.59v-6.12h0l-1.53-1.53h-4.59Z"/><path class="cls-3" d="M1085.88,360.94h0c0,3.06,0,3.06,1.53,3.06h0a1.5,1.5,0,0,0,1.53-1.53H1092c1.53,0,1.53,0,1.53-1.53h0l-1.53-1.53h0l-3.06-1.53v-4.59h0v-3.06h-1.53v1.53l-1.53,1.53h0v7.65Zm-1.53-9.18Z"/><path class="cls-3" d="M1088.94,371.65h0l-3.06-1.53-3.06-1.53h0l-1.53,1.53h0v1.53h7.65Z"/><path class="cls-3" d="M1075.18,368.59h0l-1.53-3.06h-1.53v3.06h-3.06c0-1.53,0-1.53-1.53-1.53h-6.12v1.53h-3.06v-1.53h0l-3.06-3.06h15.29l1.53-1.53h0v-4.59h-1.53l-1.53,3.06h-1.53a4.74,4.74,0,0,0-3.06-1.53h-4.59a5.34,5.34,0,0,0-3.06,1.53l-3.06,3.06h0v10.71c0,1.53,0,1.53-1.53,3.06h0v4.59h1.53v6.12c0,1.53,0,3.06,1.53,3.06h1.53c1.53,0,3.06,0,3.06-3.06v-6.12h1.53v4.59h1.53l3.06-1.53h0l1.53-1.53h0v-1.53h0a4.74,4.74,0,0,1-1.53-3.06,11.84,11.84,0,0,0-1.53-4.59v-1.53l3.06-1.53v1.53h7.65c-1.53-3.06,0-3.06,0-4.59-1.53,1.53-1.53,0,0,0Z"/><path class="cls-3" d="M1076.71,371.65h0l-3.06,1.53v1.53h3.06Z"/><path class="cls-3" d="M1079.76,373.18Z"/><path class="cls-3" d="M1079.76,325.76h0l-3.06-1.53v-3.06c0-1.53-1.53-3.06-3.06-4.59h-1.53v4.59l-1.53,1.53h-1.53v4.59h-1.53l-1.53-1.53h-1.53l-3.06,1.53h-3.06V338h1.53l1.53-1.53h0a11.84,11.84,0,0,0,1.53-4.59v-1.53H1066V338c0,1.53,1.53,1.53,3.06,1.53h4.59v1.53h1.53V338h1.53c1.53,0,3.06-3.06,3.06-6.12Z"/><path class="cls-3" d="M1055.29,275.29h-3.06l-3.06-1.53h-1.53v9.18h-1.53v9.18a1.5,1.5,0,0,0,1.53,1.53h1.53v3.06h0v3.06h0l3.06,1.53h1.53l1.53-4.59h-1.53l1.53-1.53,1.53,1.53h6.12v1.53h-1.53c-1.53,0-1.53,0-1.53,1.53v1.53h0V312h0l1.53,1.53h0a1.5,1.5,0,0,1,1.53-1.53h0v-1.53h0v4.59H1066c0-1.53,0-1.53-1.53-1.53V312h0l1.53,1.53h1.53v-4.59h0v-1.53a5.34,5.34,0,0,0-1.53-3.06c0-1.53,0-3.06-1.53-3.06h-3.06v0h0l-3.06-3.06h-7.65l-1.53-1.53-1.53-3.06v-3.06a3.29,3.29,0,0,0,3.06-3.06V286h0l-1.53-1.53v-3.06Zm-6.12,24.47Zm12.24,13.76h0l-3.06-6.12h6.12v1.53h-1.53l-1.53,4.59Z"/><path class="cls-3" d="M1040,322.71h0l4.59,1.53h0v-1.53h0v-1.53l3.06-3.06h0v-4.59h0v-3.06h-1.53v4.59h0v0h0a1.5,1.5,0,0,0-1.53,1.53l-4.59,6.12Z"/><path class="cls-3" d="M1007.88,275.29v-3.06c0-1.53,0-1.53-1.53-1.53h-6.12v1.53l-1.53,1.53v1.53a5.34,5.34,0,0,1,1.53,3.06h0a3.82,3.82,0,0,0,6.12,0C1007.88,276.82,1007.88,276.82,1007.88,275.29Z"/><path class="cls-3" d="M1047.65,244.71h0a4.74,4.74,0,0,1-3.06-1.53h0l-1.53,4.59h0v6.12c0,1.53,0,6.12,3.06,6.12h3.06l-1.53-15.29Z"/><path class="cls-3" d="M1090.47,192.71h0l-1.53-3.06h-1.53v6.12a5.34,5.34,0,0,0-1.53,3.06h-1.53a4.74,4.74,0,0,0-3.06-1.53h-4.59l-4.59,4.59h0v1.53h0v1.53h-1.53l-1.53-1.53h-1.53v1.53l1.53,1.53h0l1.53,1.53v3.06h0l1.53,1.53v7.65h0l1.53-1.53h1.53v-9.18h0l-1.53-1.53h3.06v1.53h0l1.53,1.53,1.53,3.06h0l1.53-1.53h0v-3.06h3.06l1.53-1.53h0v-1.53h0l1.53,1.53h1.53l1.53-1.53h0v-1.53h0l1.53,1.53h3.06v-1.53a1.5,1.5,0,0,0,1.53-1.53h3.06v-4.59h0l-1.53-3.06v-7.65a4.74,4.74,0,0,0-1.53-3.06v-4.59h0a5.34,5.34,0,0,1-1.53-3.06h0v-7.65h-1.53v-1.53l9.18,3.06h1.53l3.06-6.12h0v-1.53h0l-3.06-4.59h0l-1.53,1.53-6.12-1.53-6.12-4.59-1.53-1.53h-1.53v7.65l-4.59,6.12h0l3.06,3.06c0,1.53,0,1.53,1.53,1.53H1092v6.12h0l1.53,1.53v10.71Z"/><path class="cls-3" d="M1225.06,464.94h0c3.06,0,6.12,3.06,6.12,4.59v1.53h1.53v-1.53h0c1.53-3.06,0-4.59-1.53-4.59h0l-3.06-3.06h0l-3.06-1.53v-4.59c0-3.06-1.53-9.18-1.53-9.18h0l-3.06,1.53h0v15.29h0S1223.53,464.94,1225.06,464.94Z"/><path class="cls-3" d="M1121.06,549.06l-6.12,3.06h-6.12l-3.06,3.06h0v6.12a5.34,5.34,0,0,1-3.06,1.53h10.71a1.5,1.5,0,0,0,1.53-1.53,1.5,1.5,0,0,1,1.53-1.53h0v-1.53a3.29,3.29,0,0,0,3.06-3.06l1.53-1.53h0v-4.59Z"/><path class="cls-3" d="M1218.94,550.59l-3.06,1.53h0v-1.53h0l-1.53-1.53h-1.53l-4.59,4.59-3.06,1.53h0l-1.53,1.53h0l-4.59,4.59h-1.53c-1.53,0-4.59,1.53-4.59,1.53l-10.71,4.59h0l-1.53,1.53-3.06,1.53h0l-3.06,3.06h0v1.53h3.06l3.06,1.53h4.59c1.53,0,4.59-1.53,4.59-1.53h0a5.34,5.34,0,0,0,1.53-3.06c0-1.53,3.06-3.06,3.06-4.59l4.59-3.06,6.12-3.06h0l1.53-1.53h1.53c1.53,0,1.53,0,3.06-1.53h1.53c1.53,0,1.53-1.53,3.06-1.53a1.5,1.5,0,0,1,1.53-1.53l1.53-1.53h0v-3.06Z"/><path class="cls-3" d="M1248,536.82h-10.71v-3.06h0l-3.06-3.06h1.53v-4.59h0l-3.06-1.53h-1.53v10.71l-4.59,4.59c-1.53,1.53-3.06,3.06-4.59,3.06s-3.06,0-3.06,1.53h0l1.53,3.06h0l-1.53,3.06v1.53l1.53,1.53v1.53H1222l4.59-1.53h0l3.06-4.59h3.06l4.59-4.59h1.53l4.59-1.53h0l3.06-3.06h0l1.53-3.06Z"/></g><circle class="cls-4" cx="722.93" cy="305.01" r="6.8"/><circle class="cls-4" cx="696.08" cy="133.84" r="6.8"/><path class="cls-5" d="M545.05,223.53c3-3.88,7.42-9.53,13.11-16.07,13.71-15.78,108-110.66,220.15-108.11,49.88,1.13,70.48,26.85,68.8,28.53-1.68-1.68-42.6-35.37-75.52-42C721.25,75.85,692,136.26,694.4,136.26c0,0,23.48-19.44,47-3.36,63.77,43.63-16.78,174.52-18.46,172.1,1.68,2.42-1.82-19.32,109.08-11,134.25,10.07,292,171.17,293.67,171.17-19.87-180.53-21.82-214.8-52-245-20.14-20.14-48.67-3.36-48.67-3.36-1.68,0-18.63-40.91-88.94-30.21C781.67,210.1,724.61,304.07,722.93,305c0,0-88.94-94.91-146-98.26-23.69-1.39-31.88,16.78-31.88,16.78,1.68,0,28.11-79.1,75.52-97.33,43.63-16.78,73.84,10.07,73.84,10.07,34.6-34.6,124.61-59.6,191.31-47C1009.89,112.77,1025,216.81,1025,216.81s-45.58-102-102.37-110.76c-43.63-6.71-75.52,20.14-75.52,20.14-1.68,0,65.45-20.14,112.43,20.14,43.63,36.92,164.46,255.07,166.13,318.84.89,0-101.6-177.51-219.83-201.37-105.53-21.3-181.24,40.27-181.24,40.27S546.73,112.77,368.85,116.13c-40.34.76-60.41,30.21-60.41,30.21s110.76,40.27,53.7,177.88c-11,26.49-36.92,47-36.92,47S434.85,266.87,546.73,223.53c239.74-92.87,580.63,241.65,580.63,241.65s-386-355.76-718.23-359.12c-77.48-.78-100.69,40.27-100.69,40.27"/><circle class="cls-4" cx="545.05" cy="223.53" r="6.8"/><circle class="cls-4" cx="847.11" cy="126.19" r="6.8"/><circle class="cls-4" cx="1024.99" cy="216.81" r="6.8"/><circle class="cls-4" cx="1125.68" cy="465.17" r="6.8"/><circle class="cls-4" cx="326.9" cy="368.78" r="6.8"/><circle class="cls-4" cx="306.76" cy="147.26" r="6.8"/></g></g></svg>