<?xml version="1.0" encoding="utf-8"?>
<!-- Generator: Adobe Illustrator 20.1.0, SVG Export Plug-In . SVG Version: 6.00 Build 0)  -->
<svg version="1.1" id="Layer_1" xmlns="http://www.w3.org/2000/svg" xmlns:xlink="http://www.w3.org/1999/xlink" x="0px" y="0px"
	 viewBox="0 0 125 60" style="enable-background:new 0 0 125 60;" xml:space="preserve">
<style type="text/css">
	.st0{fill-rule:evenodd;clip-rule:evenodd;fill:none;}
	.st1{fill:#FFFFFF;}
	.st2{fill-rule:evenodd;clip-rule:evenodd;fill:#00984A;}
	.st3{fill-rule:evenodd;clip-rule:evenodd;fill:#FFCB05;}
	.st4{fill-rule:evenodd;clip-rule:evenodd;fill:#034694;}
	.st5{fill-rule:evenodd;clip-rule:evenodd;fill:#ED1C24;}
	.st6{fill-rule:evenodd;clip-rule:evenodd;fill:#061922;}
	.st7{fill-rule:evenodd;clip-rule:evenodd;fill:#FFFFFF;}
</style>
<g>
	<g>
		<rect x="9.5" y="10.1" class="st0" width="106" height="39.7"/>
		<polygon class="st1" points="88.7,10.5 115.2,27.5 115.2,23.3 95.4,10.5 		"/>
		<polygon class="st1" points="95.4,49.5 115.2,36.7 115.2,32.5 88.7,49.5 		"/>
		<polygon class="st2" points="107.9,30 76.7,49.5 88.7,49.5 115.2,32.5 115.2,27.5 88.7,10.5 76.7,10.5 		"/>
		<polygon class="st3" points="101.1,30 69.4,49.5 76.7,49.5 107.9,30 76.7,10.5 69.4,10.5 		"/>
		<polygon class="st4" points="115.2,49.5 115.2,36.7 95.4,49.5 		"/>
		<polygon class="st5" points="115.2,10.5 95.4,10.5 115.2,23.3 		"/>
		<polygon class="st6" points="9.8,49.5 69.5,49.5 101.2,30 69.5,10.5 9.8,10.5 		"/>
		<path class="st7" d="M74.6,28.1c0,0-1-0.3-1.7,0.1c-0.7,0.4-1.3,0.7-1.8,1.4c0-0.5,0.3-1,0.5-1.4c-0.5,0.1-0.8,0.2-1.1,0.3
			c0,0-0.1,0.1-0.1,0.1c-0.1,0.2-0.2,0.3-0.3,0.5l-1,4.6c0,0,0.3,0.3,0.7,0.3c0.3,0,1.2-0.3,1.2-0.3c0-0.1,0-0.2,0-0.5
			c0.1-0.3,0.1-0.2,0.2-1c0.3-1.1,1.1-2.8,3.3-3.7C74.8,28.2,74.8,28.1,74.6,28.1z M76.9,26.4C76.9,26.4,76.9,26.4,76.9,26.4
			c0.1,0.1,1.2-0.2,1.3-0.3c0.2-0.1,0.5-0.3,0.5-0.6c0-0.1,0-0.6-0.1-0.8c-0.1-0.1-0.2-0.2-0.3-0.1c-0.1,0-0.1,0-0.2,0.1
			c-0.1,0.1-0.7,0.3-0.8,0.3c-0.5,0.1-0.8,0.5-0.7,0.6c0.1,0.1,0.2,0.5,0.2,0.6C76.8,26.3,76.8,26.3,76.9,26.4z M59,28.3
			c1.3-2.8,2.6-5.6,3.1-6.3c0,0,0.2-0.1,0.2,0.1c0,0.9,0.1,3,0.4,5.1C61.4,27.6,60.1,28,59,28.3z M72.8,25.4
			c0.4-0.2,0.7-0.8,0.7-1.3c-0.7,0.5-0.4-0.1-3.1,0.8c-0.3,0.1-0.9,0.3-1.8,0.6l0-0.4c0.3-2.8,2.3-3.6,3.6-4.2
			c0.3-0.1,0.6-1.2-1-0.8c-2.3,0.5-3.5,3-3.8,4l-0.2,0.7c-0.1,0.4-0.2,0.8-0.3,1.2c-0.8,0.2-1.6,0.5-2.5,0.7c-0.4-4.2-0.4-6.3-1-6.6
			c-0.2-0.1-1.3-0.4-1.8-0.1c-0.6,0.4-3.1,4.9-5.3,9c-1.9,0.6-3.3,1-3.5,1.2c-0.5,0.3,0.9,1.2,1.5,1.3c0.1,0,0.3-0.1,0.8-0.2
			c-1,2-1.8,3.6-2,4c0.5-0.1,1.5,0.4,2.3-0.1c0.6-0.4,0.9-1,1.1-1.5c0.3-0.8,0.8-2,1.4-3.4c1.4-0.5,3.2-1,4.9-1.6
			c0.4,2.3,0.8,4.6,2.1,5.8c0.1,0.1,0.6,0.3,0.5,0c-0.6-2.2-0.7-4.4-0.9-6.4l2.1-0.7c-0.6,3.7,0.1,7.1,0.9,7.1
			c0.4,0,0.4-0.5,0.4-1.1c0-0.4,0.1-2,0.2-2.4l0.4-4.3c1.6-0.5,2.6-0.9,2.6-0.9C71.9,25.8,72.5,25.6,72.8,25.4z M86.1,27.5
			c-0.7,0-1.4,0.7-2,1.6l0,0.1c-0.1,0.2-0.2,0.3-0.3,0.5c-1,1.5-2.4,3.3-3.3,3.3c-0.4,0-0.7-0.7-0.4-1.6c1-2.8,3.5-3.3,3.2-3.7
			c-1.5-0.3-2.7,0.2-3.6,0.9c-1.8,1.3-3.8,3.8-3.9,3.7c-0.5-0.8,1.4-2.9,2.2-4.5c0,0-0.4,0-0.7,0c-0.6,0.1-1.3,0.2-1.5,0.4
			c0,0-1.5,2.2-1.7,3.2c-0.2,1.1,0,2.4,0.7,2.4c1,0,2.3-1.8,3.4-3.1c-0.1,0.2-0.2,0.4-0.2,0.6c-0.3,1.4-0.1,3,2,3c0.9,0,2-1.2,3-2.5
			c-0.2,1,0,1.7,0.9,1.7c0.9,0,1.7-0.4,2.5-1.3c0.5,1.5,1.6,1.1,1.6,1.1s-0.4-0.7-0.4-1.6c0-1,0.3-2.4,0.5-3.2
			c0.1-0.2,0.1-0.4,0.1-0.6C87.4,27.5,86.7,27.5,86.1,27.5z M85.9,30.9c-0.4,0.6-0.9,1.1-1.4,1.5c-0.1-0.6,0.7-2.3,1.2-3
			c0.3-0.5,0.5-0.6,0.7-0.7C86.9,28.7,86.2,30.4,85.9,30.9z M17.1,29.1c1.5,0,3.3-1,3.1,1c0,0.5-0.4,1.2-1.1,2.1
			c-0.7,0.9-2.9,3.8-3,4.2c-0.2,0.4,0.2,0.3,0.4,0.4c3.2-2.3,5.3-5.4,8-7.5c-0.2,0.9-1.7,4,0.7,3.9c1.4,0,2.6-1,3-2.5
			c0.3-1,0.3-1.9,0.3-3c-1.3,0.2-1.6-0.3-2.3-0.3c-1.4,0-2.5,2-4.1,3.5c0.2-0.4,0.4-0.9,0.5-1.4c0.1-1.8-2.1-1.9-3.2-1.9
			c-0.4,0-1.6,0.2-2.1,0.1c-0.1-0.1,0-0.1,0.1-0.4c0.5-1.2,4.4-6.2,5-6.8c0.1-0.1-0.2-0.2-0.4-0.4c-0.8-0.5-1.6-0.5-2.4,0.1
			c-2.1,2.2-3.8,4.2-4.5,5.8C14.4,27.9,14.7,29.2,17.1,29.1z M26.1,29.8c0.2-0.4,0.3-0.3,0.4-0.6c0.5,0.1,0.3,1.6,0.1,2
			c-0.2,0.4-0.5,0.9-0.9,1.3C25.5,32,25.8,30.4,26.1,29.8z M48.5,29.4c-0.7-1.3-3.6,1.3-3.9,1.6c0.3-1.3,0.7-2.6,1.1-3.7
			c0.8-2.3,1.1-3.3,2.1-5.1c0.2-0.4,0.3-0.9-0.1-1.1C47.6,21,47.5,21,47.4,21c-0.4,0-0.7,0.3-1.2,0.3l-1.8,4.3
			c-1.1,0.3-2.2,0.7-2.5,0.7c0.1-0.8,2-2.8,0.2-2.6c-0.4,0.1-0.2,0.2-0.8,0.2c-0.7,0.9-1,2.2-1.5,3.3c-0.1,0.3-1.5,1.1-2.4,1.2
			c0.3,0.3,0.8,0.2,1.3,0.2c0.3-0.1,0.3,0,0.3,0.1c0,0.1-0.1,0.2-0.1,0.4c-0.5,1.5-2.4,2.8-2.8,3c-0.4-1.1,1.1-4.2-0.7-4.2
			c-2.4,0.1-3.9,4.1-5.1,5c-0.6-1,1.4-3.7,2.4-5.7l-0.9,0c-0.4,0-1.4,0.3-1.7,0.5c0,0-1.3,2.7-1.6,4c-0.1,0.6,0,2.6,0.9,2.6
			c1.8,0,4-4.2,4.8-5c0,1.2-0.8,3.6,1,3.6c1.1,0,2.4-1.4,3.3-1.9c-0.1,1.1-0.4,3.3,1.1,3.9c-0.1-0.6,0.3-2.7,0.4-3.4
			c0.4-1.6,1.4-3.5,1.6-3.9c0.3-0.3,1.2-0.7,2.4-1.4c0,0.4-0.3,1.2-0.4,1.6c-0.4,1.8-1.4,4.7-1.4,6.3l0,0.5l0.5-0.1
			c1.9-0.6,2.7-3.6,4-3.8c0.5,0.8,0.6,3.2,1.9,3.2l0.7,0C49.7,32.6,49.2,30.7,48.5,29.4z"/>
	</g>
	<g>
		<path class="st0" d="M14.8,10.5"/>
		<line class="st0" x1="9.8" y1="46.3" x2="115.2" y2="46.3"/>
		<line class="st0" x1="9.8" y1="20.3" x2="115.2" y2="20.3"/>
		<line class="st0" x1="9.8" y1="36.5" x2="115.2" y2="36.5"/>
		<polygon class="st0" points="14.8,10.5 14.8,20.3 21.2,10.5 		"/>
		<polygon class="st0" points="14.8,36.5 14.8,46.3 21.2,36.5 		"/>
		<polygon class="st0" points="14.8,46.3 9.8,46.3 14.8,49.5 		"/>
		<polygon class="st0" points="14.8,10.4 9.8,10.4 14.8,13.7 		"/>
		<line class="st0" x1="9.8" y1="49.5" x2="115.2" y2="49.5"/>
		<line class="st0" x1="115.2" y1="29.8" x2="115.2" y2="49.5"/>
	</g>
</g>
</svg>
